<svg xmlns="http://www.w3.org/2000/svg" width="24.001" height="24.001" viewBox="0 0 24.001 24.001">
  <path id="Subtraction_2" data-name="Subtraction 2" d="M11926-1126a11.925,11.925,0,0,1-8.486-3.514A11.919,11.919,0,0,1,11914-1138a11.924,11.924,0,0,1,3.516-8.486A11.923,11.923,0,0,1,11926-1150a11.92,11.92,0,0,1,8.485,3.516A11.928,11.928,0,0,1,11938-1138a11.923,11.923,0,0,1-3.514,8.485A11.922,11.922,0,0,1,11926-1126Zm.087-20.226a8.323,8.323,0,0,0-8.314,8.314,8.323,8.323,0,0,0,8.314,8.314,8.323,8.323,0,0,0,8.313-8.314A8.323,8.323,0,0,0,11926.088-1146.226Zm3.366,12.239a.525.525,0,0,1-.269-.075,8.266,8.266,0,0,0-4.383-1.153,13.291,13.291,0,0,0-2.919.351.515.515,0,0,1-.115.013.521.521,0,0,1-.5-.4.513.513,0,0,1,.066-.39.511.511,0,0,1,.323-.231,14.236,14.236,0,0,1,3.158-.381,9.284,9.284,0,0,1,4.916,1.306.516.516,0,0,1,.233.324.509.509,0,0,1-.062.389.516.516,0,0,1-.32.234A.513.513,0,0,1,11929.454-1133.987Zm.908-2.2a.651.651,0,0,1-.338-.095,10.489,10.489,0,0,0-5.351-1.381,10.308,10.308,0,0,0-2.934.411.65.65,0,0,1-.19.029.643.643,0,0,1-.618-.46.648.648,0,0,1,.432-.806,11.459,11.459,0,0,1,3.329-.473,11.792,11.792,0,0,1,6.012,1.575.654.654,0,0,1,.213.893A.648.648,0,0,1,11930.362-1136.191Zm1.037-2.557a.777.777,0,0,1-.4-.109,12.47,12.47,0,0,0-6.136-1.417,12.611,12.611,0,0,0-3.521.455.779.779,0,0,1-.228.034.781.781,0,0,1-.743-.552.768.768,0,0,1,.057-.591.776.776,0,0,1,.462-.38,14.181,14.181,0,0,1,3.972-.522,14.04,14.04,0,0,1,6.931,1.634.782.782,0,0,1,.272,1.067A.782.782,0,0,1,11931.4-1138.748Z" transform="translate(-11913.999 1150.001)" fill="#fff"/>
</svg>
