<svg xmlns="http://www.w3.org/2000/svg" width="24.001" height="24.001" viewBox="0 0 24.001 24.001">
  <path id="Subtraction_1" data-name="Subtraction 1" d="M11926-1126a11.925,11.925,0,0,1-8.486-3.514A11.919,11.919,0,0,1,11914-1138a11.924,11.924,0,0,1,3.516-8.486A11.923,11.923,0,0,1,11926-1150a11.92,11.92,0,0,1,8.485,3.516A11.928,11.928,0,0,1,11938-1138a11.923,11.923,0,0,1-3.514,8.485A11.922,11.922,0,0,1,11926-1126Zm-2.107-13.315a4.337,4.337,0,0,0-2.81,1.055,4.312,4.312,0,0,0-1.485,2.852c-.01.282-.007.57.009.857a4.333,4.333,0,0,0,2.1,3.284,4.217,4.217,0,0,0,2.134.6c.064,0,.133,0,.209-.006a4.277,4.277,0,0,0,3.4-1.845,4.384,4.384,0,0,0,.778-2.265c.011-.974.011-1.969.011-2.931v-.222c0-.7,0-1.312,0-1.877a6.745,6.745,0,0,0,.93.533,6.085,6.085,0,0,0,2.417.557v-2.316a4.049,4.049,0,0,1-2.438-1.028,3.554,3.554,0,0,1-1.007-2.4c-.344,0-.693,0-1.032,0-.4,0-.811,0-1.215.007-.012,1.525-.011,3.058-.009,4.625v.772c0,.515,0,1.03,0,1.545,0,.236,0,.477,0,.71v.174c0,.719,0,1.463-.04,2.2a1.205,1.205,0,0,1-.2.55l0,.007-.031.054a1.947,1.947,0,0,1-1.591.926c-.047,0-.095.006-.142.006a1.971,1.971,0,0,1-1.872-1.657c0-.025,0-.05,0-.075s0-.051,0-.077a1.843,1.843,0,0,1,.082-.774,2,2,0,0,1,.785-1.007,1.866,1.866,0,0,1,1.07-.318,2.141,2.141,0,0,1,.664.105c0-.319,0-.644.011-.959l0-.127c.008-.454.018-.969.011-1.467A3.958,3.958,0,0,0,11923.894-1139.315Z" transform="translate(-11913.999 1150.001)" fill="#fff"/>
</svg>
