<svg xmlns="http://www.w3.org/2000/svg" xmlns:xlink="http://www.w3.org/1999/xlink" width="1140" height="339" viewBox="0 0 1140 339"><defs><style>.a{fill:#001e42;}.b{fill:url(#a);}</style><linearGradient id="a" x1="0.293" y1="1" x2="0.684" y2="1" gradientUnits="objectBoundingBox"><stop offset="0" stop-color="#73fbe8"/><stop offset="1" stop-color="#bbc6e6" stop-opacity="0"/></linearGradient></defs><path class="a" d="M15,0H1125c8.284,0,15,7.589,15,16.95v305.1c0,9.361-6.716,16.95-15,16.95H15c-8.284,0-15-7.589-15-16.95V16.95C0,7.589,6.716,0,15,0Z"/><path class="b" d="M12,2.275c-5.514,0-10,5.1-10,11.377V302.639c0,6.273,4.486,11.377,10,11.377H1104c5.514,0,10-5.1,10-11.377V13.653c0-6.274-4.486-11.377-10-11.377H12M12,0H1104c6.627,0,12,6.113,12,13.653V302.639c0,7.54-5.373,13.653-12,13.653H12c-6.627,0-12-6.113-12-13.653V13.653C0,6.113,5.373,0,12,0Z" transform="translate(12 11)"/></svg>