<svg xmlns="http://www.w3.org/2000/svg" xmlns:xlink="http://www.w3.org/1999/xlink" width="1140" height="476" viewBox="0 0 1140 476"><defs><style>.a{fill:#00ffe8;font-size:18px;font-family:NunitoSans-SemiBold, Nunito Sans;font-weight:600;letter-spacing:0.021em;text-decoration:underline;}.b{fill:url(#a);}.c{fill:#001e42;}.d{opacity:0.28;fill:url(#b);}.e{fill:url(#c);}</style><linearGradient id="a" x1="0.138" x2="0.849" gradientUnits="objectBoundingBox"><stop offset="0" stop-color="#001e42"/><stop offset="1" stop-color="#001e42" stop-opacity="0"/></linearGradient><linearGradient id="b" x1="0.5" x2="0.5" y2="0.964" gradientUnits="objectBoundingBox"><stop offset="0" stop-color="#e7f7f7" stop-opacity="0"/><stop offset="0.518" stop-color="#e7f7f7"/><stop offset="1" stop-color="#001e42"/></linearGradient><linearGradient id="c" y1="0.385" x2="1" y2="0.392" gradientUnits="objectBoundingBox"><stop offset="0" stop-color="#00ffe8"/><stop offset="1" stop-color="#bbc6e6" stop-opacity="0"/></linearGradient></defs><text class="a" transform="translate(1105 407)"><tspan x="-138.6" y="0">Inicia tu proceso</tspan><tspan x="-122.238" y="24" xml:space="preserve">con un asesor </tspan></text><rect class="b" width="276" height="300" transform="translate(475)"/><g transform="translate(-110 -1173)"><rect class="c" width="1140" height="476" rx="15" transform="translate(110 1173)"/><path class="d" d="M1425.653,983.661l56.322-65.712.043-.02h95.494c.041,0,.068.054.041.082l-94.488,110.239a12.682,12.682,0,0,1-19.249,0l-38.162-44.526Zm-179.933,194.794,101.2-118.072a18.736,18.736,0,0,0,0-24.382l-101.2-118.072h98.045l101.338,118.23a18.492,18.492,0,0,1,0,24.072l-101.338,118.224Zm236.268,0-56.363-65.76,38.229-44.6a12.63,12.63,0,0,1,19.175,0l94.592,110.362Z" transform="translate(-337.623 294.731)"/><path class="e" d="M12,2A10.011,10.011,0,0,0,2,12V444a10.011,10.011,0,0,0,10,10H1106a10.011,10.011,0,0,0,10-10V12a10.011,10.011,0,0,0-10-10H12m0-2H1106a12,12,0,0,1,12,12V444a12,12,0,0,1-12,12H12A12,12,0,0,1,0,444V12A12,12,0,0,1,12,0Z" transform="translate(122 1183)"/></g></svg>