<svg xmlns="http://www.w3.org/2000/svg" width="217.855" height="225.509" viewBox="0 0 217.855 225.509"><defs><style>.a{fill:#001e42;}</style></defs><g transform="translate(-603.866 -171.353)"><g transform="translate(603.866 325.485)"><g transform="translate(1.097 61.727)"><path class="a" d="M608.4,886.027a3.878,3.878,0,0,1-.951-2.837v-5.742h1.084v5.836a2.866,2.866,0,0,0,.676,2.074,3.176,3.176,0,0,0,3.968,0,2.885,2.885,0,0,0,.669-2.074v-5.836h1.1v5.742a3.869,3.869,0,0,1-.957,2.831,4.52,4.52,0,0,1-5.587.006Z" transform="translate(-607.453 -877.341)"/><path class="a" d="M687.89,877.448h1.03v9.435h-.843l-5.688-7.588v7.588h-1.03v-9.435h.843l5.688,7.588Z" transform="translate(-658.754 -877.341)"/><path class="a" d="M755.7,886.883v-9.435h1.1v9.435Z" transform="translate(-710.359 -877.341)"/><path class="a" d="M813.261,877.448h1.124l-4.122,9.435h-.95l-4.122-9.435h1.151l3.453,8.057Z" transform="translate(-744.71 -877.341)"/><path class="a" d="M881.151,886.883v-9.435h5.969v.91h-4.885v3.279h4.617v.91h-4.617v3.426h4.885v.91Z" transform="translate(-797.438 -877.341)"/><path class="a" d="M956.051,886.883h-1.2l-1.606-3.024a1.741,1.741,0,0,0-.689-.756,2.335,2.335,0,0,0-1.077-.208h-1.767v3.988h-1.084v-9.435H952.5a3.557,3.557,0,0,1,2.349.683,2.478,2.478,0,0,1,.809,2.008,2.515,2.515,0,0,1-.622,1.773,2.914,2.914,0,0,1-1.774.85,1.58,1.58,0,0,1,.636.361,2.56,2.56,0,0,1,.5.683Zm-3.64-4.9a2.507,2.507,0,0,0,1.639-.455,1.7,1.7,0,0,0,.542-1.379,1.652,1.652,0,0,0-.536-1.352,2.555,2.555,0,0,0-1.646-.442h-2.7v3.627Z" transform="translate(-844.273 -877.341)"/><path class="a" d="M1018.853,885.557l.428-.843a4.517,4.517,0,0,0,1.425.843,5.143,5.143,0,0,0,1.693.254,2.976,2.976,0,0,0,1.753-.442,1.443,1.443,0,0,0,.616-1.245,1.032,1.032,0,0,0-.295-.763,2.077,2.077,0,0,0-.776-.469,11.652,11.652,0,0,0-1.3-.361,12.567,12.567,0,0,1-1.8-.536,2.8,2.8,0,0,1-1.138-.8,2.063,2.063,0,0,1-.435-1.366,2.478,2.478,0,0,1,.421-1.425,2.725,2.725,0,0,1,1.2-.964,4.506,4.506,0,0,1,1.813-.341,5.324,5.324,0,0,1,1.827.308,3.967,3.967,0,0,1,1.439.883l-.415.843a4.6,4.6,0,0,0-1.359-.836,4.175,4.175,0,0,0-1.492-.262,2.838,2.838,0,0,0-1.72.462,1.517,1.517,0,0,0-.622,1.292,1.2,1.2,0,0,0,.549,1.071,5.24,5.24,0,0,0,1.66.616q1.217.294,1.913.542a2.865,2.865,0,0,1,1.158.743,1.866,1.866,0,0,1,.462,1.325,2.39,2.39,0,0,1-.421,1.405,2.7,2.7,0,0,1-1.212.93,4.794,4.794,0,0,1-1.847.328A5.083,5.083,0,0,1,1018.853,885.557Z" transform="translate(-893.022 -877.098)"/><path class="a" d="M1089.607,886.883v-9.435h1.1v9.435Z" transform="translate(-942.135 -877.341)"/><path class="a" d="M1142.815,877.448h3.172a4.763,4.763,0,0,1,3.5,1.225,5.536,5.536,0,0,1,0,6.979,4.746,4.746,0,0,1-3.5,1.231h-3.172Zm3.1,8.5q3.668,0,3.667-3.787t-3.667-3.774h-2.007v7.562Z" transform="translate(-979.069 -877.341)"/><path class="a" d="M1221.575,886.883l-1.044-2.422h-4.925l-1.044,2.422h-1.125l4.149-9.435h.95l4.149,9.435Zm-5.581-3.332h4.149l-2.074-4.831Z" transform="translate(-1028.091 -877.341)"/><path class="a" d="M1290.274,877.448h3.172a4.766,4.766,0,0,1,3.5,1.225,5.538,5.538,0,0,1,0,6.979,4.749,4.749,0,0,1-3.5,1.231h-3.172Zm3.1,8.5q3.668,0,3.667-3.787t-3.667-3.774h-2.007v7.562Z" transform="translate(-1081.426 -877.341)"/></g><path class="a" d="M620.163,727.512h-16.3v-52.23h16.3Zm62.467-42.644v-9.586H630.4v46.145a6.085,6.085,0,0,0,6.085,6.085H682.63v-9.586H649.572V704.517h29.612a1.457,1.457,0,0,0,1.457-1.457v-8.129H649.572V684.868Zm139.072,0v-9.586h-52.23v46.145a6.085,6.085,0,0,0,6.085,6.085H821.7v-9.586H788.644V704.517h29.612a1.457,1.457,0,0,0,1.457-1.457v-8.129H788.644V684.868Zm-109.2-9.586H692.882l20.378,23.661a3.684,3.684,0,0,1,0,4.808l-20.378,23.661H712.5l20.371-23.653a3.7,3.7,0,0,0,0-4.823Zm47.4,0-19.526,22.672a2.219,2.219,0,0,1-3.362,0l-8.128-9.438,11.4-13.235Zm-19.618,52.13-11.4-13.234,8.128-9.438a2.219,2.219,0,0,1,3.362,0L759.9,727.412Z" transform="translate(-603.866 -675.282)"/></g><path class="a" d="M765.252,171.353v78.573c0,32.636,26.357,59.264,58.87,59.264a58.982,58.982,0,0,0,58.87-59.093V171.353Zm59.125,47.872,14.708-17.077a2.659,2.659,0,0,0,0-3.47L824.377,181.6h14.16l14.7,17.072a2.667,2.667,0,0,1,0,3.481l-14.7,17.072Zm34.208,0-8.227-9.552,5.867-6.812a1.6,1.6,0,0,1,2.426,0l14.093,16.363Zm.067-21.261a1.6,1.6,0,0,1-2.426,0l-5.867-6.812,8.227-9.552h14.159Z" transform="translate(-112.025 0)"/></g></svg>