<svg xmlns="http://www.w3.org/2000/svg" width="711.615" height="168.326" viewBox="0 0 711.615 168.326"><defs><style>.a{fill:#d4e4f9;}</style></defs><g transform="translate(-1033.67 -1204)"><g transform="translate(1033.67 1213.66)"><path class="a" d="M1979.706,337.066H1978.2l1.563,1.814a.284.284,0,0,1,0,.369l-1.563,1.814h1.505l1.561-1.814a.279.279,0,0,0,0-.369Zm3.634,0-1.5,1.739a.169.169,0,0,1-.257,0l-.624-.725.873-1.014Zm-1.5,4-.873-1.014.624-.724a.171.171,0,0,1,.257,0l1.5,1.739Zm28.783-4h-1.505l1.563,1.814a.283.283,0,0,1,0,.369l-1.563,1.814h1.505l1.561-1.814a.279.279,0,0,0,0-.369Zm3.634,0-1.5,1.739a.169.169,0,0,1-.257,0l-.624-.725.873-1.014Zm-1.505,4-.873-1.014.624-.724a.172.172,0,0,1,.257,0l1.5,1.739Zm28.783-4h-1.5l1.563,1.814a.284.284,0,0,1,0,.369l-1.563,1.814h1.5l1.561-1.814a.279.279,0,0,0,0-.369Zm3.634,0-1.5,1.739a.169.169,0,0,1-.257,0l-.624-.725.873-1.014Zm-1.505,4-.873-1.014.624-.724a.172.172,0,0,1,.257,0l1.5,1.739Zm28.783-4h-1.5l1.563,1.814a.284.284,0,0,1,0,.369l-1.563,1.814h1.5l1.561-1.814a.28.28,0,0,0,0-.369Zm3.634,0-1.5,1.739a.169.169,0,0,1-.257,0l-.624-.725.873-1.014Zm-1.5,4-.873-1.014.624-.724a.172.172,0,0,1,.257,0l1.5,1.739Zm28.783-4h-1.5l1.563,1.814a.283.283,0,0,1,0,.369l-1.563,1.814h1.5l1.561-1.814a.279.279,0,0,0,0-.369Zm3.634,0-1.5,1.739a.169.169,0,0,1-.257,0l-.624-.725.873-1.014Zm-1.5,4-.873-1.014.624-.724a.172.172,0,0,1,.257,0l1.5,1.739Zm28.783-4h-1.505l1.563,1.814a.285.285,0,0,1,0,.369l-1.563,1.814h1.505l1.561-1.814a.28.28,0,0,0,0-.369Zm3.634,0-1.5,1.739a.169.169,0,0,1-.257,0l-.624-.725.874-1.014Zm-1.505,4-.874-1.014.624-.724a.172.172,0,0,1,.257,0l1.5,1.739Zm-156.689,20.048H1978.2l1.563,1.816a.281.281,0,0,1,0,.367l-1.563,1.816h1.505l1.561-1.814a.281.281,0,0,0,0-.371Zm3.634,0-1.5,1.739a.168.168,0,0,1-.257,0l-.624-.723.873-1.016Zm-1.5,4-.873-1.016.624-.723a.168.168,0,0,1,.257,0l1.5,1.739Zm28.783-4h-1.505l1.563,1.816a.281.281,0,0,1,0,.367l-1.563,1.816h1.505l1.561-1.814a.281.281,0,0,0,0-.371Zm3.634,0-1.5,1.739a.169.169,0,0,1-.257,0l-.624-.723.873-1.016Zm-1.505,4-.873-1.016.624-.723a.169.169,0,0,1,.257,0l1.5,1.739Zm28.783-4h-1.5l1.563,1.816a.281.281,0,0,1,0,.367l-1.563,1.816h1.5l1.561-1.814a.282.282,0,0,0,0-.371Zm3.634,0-1.5,1.739a.169.169,0,0,1-.257,0l-.624-.723.873-1.016Zm-1.505,4-.873-1.016.624-.723a.169.169,0,0,1,.257,0l1.5,1.739Zm28.783-4h-1.5l1.563,1.816a.281.281,0,0,1,0,.367l-1.563,1.816h1.5L2074,363.3a.283.283,0,0,0,0-.371Zm3.634,0-1.5,1.739a.169.169,0,0,1-.257,0l-.624-.723.873-1.016Zm-1.5,4-.873-1.016.624-.723a.169.169,0,0,1,.257,0l1.5,1.739Zm28.783-4h-1.5l1.563,1.816a.281.281,0,0,1,0,.367l-1.563,1.816h1.5l1.561-1.814a.281.281,0,0,0,0-.371Zm3.634,0-1.5,1.739a.169.169,0,0,1-.257,0l-.624-.723.873-1.016Zm-1.5,4-.873-1.016.624-.723a.169.169,0,0,1,.257,0l1.5,1.739Zm28.783-4h-1.505l1.563,1.816a.282.282,0,0,1,0,.367l-1.563,1.816h1.505l1.561-1.814a.283.283,0,0,0,0-.371Zm3.634,0-1.5,1.739a.169.169,0,0,1-.257,0l-.624-.723.874-1.016Zm-1.505,4-.874-1.016.624-.723a.169.169,0,0,1,.257,0l1.5,1.739Zm-156.689,20.048H1978.2l1.563,1.814a.284.284,0,0,1,0,.369l-1.563,1.814h1.505l1.561-1.814a.279.279,0,0,0,0-.369Zm3.634,0-1.5,1.739a.171.171,0,0,1-.257,0l-.624-.724.873-1.014Zm-1.5,4-.873-1.014.624-.725a.169.169,0,0,1,.257,0l1.5,1.739Zm28.783-4h-1.505l1.563,1.814a.283.283,0,0,1,0,.369l-1.563,1.814h1.505l1.561-1.814a.279.279,0,0,0,0-.369Zm3.634,0-1.5,1.739a.172.172,0,0,1-.257,0l-.624-.724.873-1.014Zm-1.505,4-.873-1.014.624-.725a.169.169,0,0,1,.257,0l1.5,1.739Zm28.783-4h-1.5l1.563,1.814a.284.284,0,0,1,0,.369l-1.563,1.814h1.5l1.561-1.814a.279.279,0,0,0,0-.369Zm3.634,0-1.5,1.739a.172.172,0,0,1-.257,0l-.624-.724.873-1.014Zm-1.505,4-.873-1.014.624-.725a.169.169,0,0,1,.257,0l1.5,1.739Zm28.783-4h-1.5l1.563,1.814a.284.284,0,0,1,0,.369l-1.563,1.814h1.5l1.561-1.814a.28.28,0,0,0,0-.369Zm3.634,0-1.5,1.739a.172.172,0,0,1-.257,0l-.624-.724.873-1.014Zm-1.5,4-.873-1.014.624-.725a.169.169,0,0,1,.257,0l1.5,1.739Zm28.783-4h-1.5l1.563,1.814a.283.283,0,0,1,0,.369l-1.563,1.814h1.5l1.561-1.814a.279.279,0,0,0,0-.369Zm3.634,0-1.5,1.739a.172.172,0,0,1-.257,0l-.624-.724.873-1.014Zm-1.5,4-.873-1.014.624-.725a.169.169,0,0,1,.257,0l1.5,1.739Zm28.783-4h-1.505l1.563,1.814a.284.284,0,0,1,0,.369l-1.563,1.814h1.505l1.561-1.814a.28.28,0,0,0,0-.369Zm3.634,0-1.5,1.739a.172.172,0,0,1-.257,0l-.624-.724.874-1.014Zm-1.505,4-.874-1.014.624-.725a.169.169,0,0,1,.257,0l1.5,1.739Zm-156.689,20.048H1978.2l1.563,1.814a.284.284,0,0,1,0,.369L1978.2,413.2h1.505l1.561-1.814a.279.279,0,0,0,0-.369Zm3.634,0-1.5,1.739a.168.168,0,0,1-.257,0l-.624-.724.873-1.014Zm-1.5,4-.873-1.014.624-.725a.171.171,0,0,1,.257,0l1.5,1.739Zm28.783-4h-1.505l1.563,1.814a.283.283,0,0,1,0,.369l-1.563,1.814h1.505l1.561-1.814a.279.279,0,0,0,0-.369Zm3.634,0-1.5,1.739a.169.169,0,0,1-.257,0l-.624-.724.873-1.014Zm-1.505,4-.873-1.014.624-.725a.172.172,0,0,1,.257,0l1.5,1.739Zm28.783-4h-1.5l1.563,1.814a.284.284,0,0,1,0,.369l-1.563,1.814h1.5l1.561-1.814a.279.279,0,0,0,0-.369Zm3.634,0-1.5,1.739a.169.169,0,0,1-.257,0l-.624-.724.873-1.014Zm-1.505,4-.873-1.014.624-.725a.172.172,0,0,1,.257,0l1.5,1.739Zm28.783-4h-1.5l1.563,1.814a.284.284,0,0,1,0,.369l-1.563,1.814h1.5l1.561-1.814a.28.28,0,0,0,0-.369Zm3.634,0-1.5,1.739a.169.169,0,0,1-.257,0l-.624-.724.873-1.014Zm-1.5,4-.873-1.014.624-.725a.172.172,0,0,1,.257,0l1.5,1.739Zm28.783-4h-1.5l1.563,1.814a.283.283,0,0,1,0,.369l-1.563,1.814h1.5l1.561-1.814a.279.279,0,0,0,0-.369Zm3.634,0-1.5,1.739a.169.169,0,0,1-.257,0l-.624-.724.873-1.014Zm-1.5,4-.873-1.014.624-.725a.172.172,0,0,1,.257,0l1.5,1.739Zm28.783-4h-1.505l1.563,1.814a.285.285,0,0,1,0,.369l-1.563,1.814h1.505l1.561-1.814a.28.28,0,0,0,0-.369Zm3.634,0-1.5,1.739a.169.169,0,0,1-.257,0l-.624-.724.874-1.014Zm-1.505,4-.874-1.014.624-.725a.172.172,0,0,1,.257,0l1.5,1.739Zm-156.689,20.048H1978.2l1.563,1.816a.281.281,0,0,1,0,.367l-1.563,1.816h1.505l1.561-1.814a.281.281,0,0,0,0-.371Zm3.634,0-1.5,1.739a.168.168,0,0,1-.257,0l-.624-.723.873-1.016Zm-1.5,4-.873-1.016.624-.723a.169.169,0,0,1,.257,0l1.5,1.739Zm28.783-4h-1.505l1.563,1.816a.281.281,0,0,1,0,.367l-1.563,1.816h1.505l1.561-1.814a.281.281,0,0,0,0-.371Zm3.634,0-1.5,1.739a.169.169,0,0,1-.257,0l-.624-.723.873-1.016Zm-1.505,4-.873-1.016.624-.723a.169.169,0,0,1,.257,0l1.5,1.739Zm28.783-4h-1.5l1.563,1.816a.281.281,0,0,1,0,.367l-1.563,1.816h1.5l1.561-1.814a.282.282,0,0,0,0-.371Zm3.634,0-1.5,1.739a.169.169,0,0,1-.257,0l-.624-.723.873-1.016Zm-1.505,4-.873-1.016.624-.723a.169.169,0,0,1,.257,0l1.5,1.739Zm28.783-4h-1.5l1.563,1.816a.281.281,0,0,1,0,.367l-1.563,1.816h1.5l1.561-1.814a.283.283,0,0,0,0-.371Zm3.634,0-1.5,1.739a.169.169,0,0,1-.257,0l-.624-.723.873-1.016Zm-1.5,4-.873-1.016.624-.723a.169.169,0,0,1,.257,0l1.5,1.739Zm28.783-4h-1.5l1.563,1.816a.281.281,0,0,1,0,.367l-1.563,1.816h1.5l1.561-1.814a.281.281,0,0,0,0-.371Zm3.634,0-1.5,1.739a.169.169,0,0,1-.257,0l-.624-.723.873-1.016Zm-1.5,4-.873-1.016.624-.723a.169.169,0,0,1,.257,0l1.5,1.739Zm28.783-4h-1.505l1.563,1.816a.282.282,0,0,1,0,.367l-1.563,1.816h1.505l1.561-1.814a.283.283,0,0,0,0-.371Zm3.634,0-1.5,1.739a.169.169,0,0,1-.257,0l-.624-.723.874-1.016Zm-1.505,4-.874-1.016.624-.723a.169.169,0,0,1,.257,0l1.5,1.739ZM1979.706,457.3H1978.2l1.563,1.814a.284.284,0,0,1,0,.369L1978.2,461.3h1.505l1.561-1.814a.279.279,0,0,0,0-.369Zm3.634,0-1.5,1.739a.168.168,0,0,1-.257,0l-.624-.725.873-1.014Zm-1.5,4-.873-1.014.624-.724a.168.168,0,0,1,.257,0l1.5,1.739Zm28.783-4h-1.505l1.563,1.814a.283.283,0,0,1,0,.369l-1.563,1.814h1.505l1.561-1.814a.279.279,0,0,0,0-.369Zm3.634,0-1.5,1.739a.169.169,0,0,1-.257,0l-.624-.725.873-1.014Zm-1.505,4-.873-1.014.624-.724a.169.169,0,0,1,.257,0l1.5,1.739Zm28.783-4h-1.5l1.563,1.814a.284.284,0,0,1,0,.369l-1.563,1.814h1.5l1.561-1.814a.279.279,0,0,0,0-.369Zm3.634,0-1.5,1.739a.169.169,0,0,1-.257,0l-.624-.725.873-1.014Zm-1.505,4-.873-1.014.624-.724a.169.169,0,0,1,.257,0l1.5,1.739Zm28.783-4h-1.5l1.563,1.814a.284.284,0,0,1,0,.369l-1.563,1.814h1.5l1.561-1.814a.28.28,0,0,0,0-.369Zm3.634,0-1.5,1.739a.169.169,0,0,1-.257,0l-.624-.725.873-1.014Zm-1.5,4-.873-1.014.624-.724a.169.169,0,0,1,.257,0l1.5,1.739Zm28.783-4h-1.5l1.563,1.814a.283.283,0,0,1,0,.369l-1.563,1.814h1.5l1.561-1.814a.279.279,0,0,0,0-.369Zm3.634,0-1.5,1.739a.169.169,0,0,1-.257,0l-.624-.725.873-1.014Zm-1.5,4-.873-1.014.624-.724a.169.169,0,0,1,.257,0l1.5,1.739Zm28.783-4h-1.505l1.563,1.814a.285.285,0,0,1,0,.369l-1.563,1.814h1.505l1.561-1.814a.28.28,0,0,0,0-.369Zm3.634,0-1.5,1.739a.169.169,0,0,1-.257,0l-.624-.725.874-1.014Zm-1.505,4-.874-1.014.624-.724a.169.169,0,0,1,.257,0l1.5,1.739Zm-156.689,20.048H1978.2l1.563,1.814a.284.284,0,0,1,0,.369l-1.563,1.814h1.505l1.561-1.814a.279.279,0,0,0,0-.369Zm3.634,0-1.5,1.739a.169.169,0,0,1-.257,0l-.624-.725.873-1.014Zm-1.5,4-.873-1.014.624-.725a.171.171,0,0,1,.257,0l1.5,1.739Zm28.783-4h-1.505l1.563,1.814a.283.283,0,0,1,0,.369l-1.563,1.814h1.505l1.561-1.814a.279.279,0,0,0,0-.369Zm3.634,0-1.5,1.739a.169.169,0,0,1-.257,0l-.624-.725.873-1.014Zm-1.505,4-.873-1.014.624-.725a.171.171,0,0,1,.257,0l1.5,1.739Zm28.783-4h-1.5l1.563,1.814a.284.284,0,0,1,0,.369l-1.563,1.814h1.5l1.561-1.814a.279.279,0,0,0,0-.369Zm3.634,0-1.5,1.739a.169.169,0,0,1-.257,0l-.624-.725.873-1.014Zm-1.505,4-.873-1.014.624-.725a.171.171,0,0,1,.257,0l1.5,1.739Zm28.783-4h-1.5l1.563,1.814a.284.284,0,0,1,0,.369l-1.563,1.814h1.5l1.561-1.814a.28.28,0,0,0,0-.369Zm3.634,0-1.5,1.739a.169.169,0,0,1-.257,0l-.624-.725.873-1.014Zm-1.5,4-.873-1.014.624-.725a.172.172,0,0,1,.257,0l1.5,1.739Zm28.783-4h-1.5l1.563,1.814a.283.283,0,0,1,0,.369l-1.563,1.814h1.5l1.561-1.814a.279.279,0,0,0,0-.369Zm3.634,0-1.5,1.739a.169.169,0,0,1-.257,0l-.624-.725.873-1.014Zm-1.5,4-.873-1.014.624-.725a.171.171,0,0,1,.257,0l1.5,1.739Zm28.783-4h-1.505l1.563,1.814a.284.284,0,0,1,0,.369l-1.563,1.814h1.505l1.561-1.814a.28.28,0,0,0,0-.369Zm3.634,0-1.5,1.739a.169.169,0,0,1-.257,0l-.624-.725.874-1.014Zm-1.505,4-.874-1.014.624-.725a.171.171,0,0,1,.257,0l1.5,1.739Z" transform="translate(-1978.201 -337.066)"/></g><g transform="translate(1207.107 1211.728)"><path class="a" d="M2075.9,335.938h-3.145l3.267,3.793a.589.589,0,0,1,0,.771l-3.267,3.793h3.145l3.266-3.791a.593.593,0,0,0,0-.773Zm7.6,0-3.13,3.634a.356.356,0,0,1-.539,0l-1.3-1.513,1.826-2.121Zm-3.145,8.356-1.826-2.121,1.3-1.513a.356.356,0,0,1,.539,0l3.13,3.634Zm26.46-8.356h-3.145l3.267,3.793a.589.589,0,0,1,0,.771l-3.267,3.793h3.145l3.265-3.791a.592.592,0,0,0,0-.773Zm7.6,0-3.13,3.634a.356.356,0,0,1-.539,0l-1.3-1.513,1.826-2.121Zm-3.145,8.356-1.826-2.121,1.3-1.513a.356.356,0,0,1,.539,0l3.13,3.634Zm26.46-8.356h-3.145l3.267,3.793a.589.589,0,0,1,0,.771l-3.267,3.793h3.145l3.265-3.791a.592.592,0,0,0,0-.773Zm7.6,0-3.13,3.634a.356.356,0,0,1-.539,0l-1.3-1.513,1.826-2.121Zm-3.145,8.356-1.826-2.121,1.3-1.513a.356.356,0,0,1,.539,0l3.13,3.634Zm26.46-8.356h-3.145l3.267,3.793a.589.589,0,0,1,0,.771l-3.267,3.793h3.145l3.265-3.791a.593.593,0,0,0,0-.773Zm7.6,0-3.13,3.634a.356.356,0,0,1-.539,0l-1.3-1.513,1.826-2.121Zm-3.145,8.356-1.826-2.121,1.3-1.513a.356.356,0,0,1,.539,0l3.13,3.634Zm26.46-8.356H2196.4l3.267,3.793a.589.589,0,0,1,0,.771l-3.267,3.793h3.145l3.266-3.791a.593.593,0,0,0,0-.773Zm7.6,0-3.13,3.634a.356.356,0,0,1-.539,0l-1.3-1.513,1.826-2.121ZM2204,344.294l-1.826-2.121,1.3-1.513a.356.356,0,0,1,.539,0l3.13,3.634Zm26.46-8.356h-3.145l3.267,3.793a.589.589,0,0,1,0,.771l-3.267,3.793h3.145l3.265-3.791a.592.592,0,0,0,0-.773Zm7.6,0-3.13,3.634a.356.356,0,0,1-.539,0l-1.3-1.513,1.826-2.121Zm-3.145,8.356-1.826-2.121,1.3-1.513a.356.356,0,0,1,.539,0l3.13,3.634ZM2075.9,359.986h-3.145l3.267,3.792a.586.586,0,0,1,0,.769l-3.267,3.793h3.145l3.266-3.791a.593.593,0,0,0,0-.773Zm7.6,0-3.13,3.634a.356.356,0,0,1-.539,0l-1.3-1.513,1.826-2.121Zm-3.145,8.354-1.826-2.121,1.3-1.513a.356.356,0,0,1,.539,0l3.13,3.634Zm26.46-8.354h-3.145l3.267,3.792a.586.586,0,0,1,0,.769l-3.267,3.793h3.145l3.265-3.791a.592.592,0,0,0,0-.773Zm7.6,0-3.13,3.634a.356.356,0,0,1-.539,0l-1.3-1.513,1.826-2.121Zm-3.145,8.354-1.826-2.121,1.3-1.513a.356.356,0,0,1,.539,0l3.13,3.634Zm26.46-8.354h-3.145l3.267,3.792a.586.586,0,0,1,0,.769l-3.267,3.793h3.145l3.265-3.791a.592.592,0,0,0,0-.773Zm7.6,0-3.13,3.634a.356.356,0,0,1-.539,0l-1.3-1.513,1.826-2.121Zm-3.145,8.354-1.826-2.121,1.3-1.513a.356.356,0,0,1,.539,0l3.13,3.634Zm26.46-8.354h-3.145l3.267,3.792a.587.587,0,0,1,0,.769l-3.267,3.793h3.145l3.265-3.791a.593.593,0,0,0,0-.773Zm7.6,0-3.13,3.634a.356.356,0,0,1-.539,0l-1.3-1.513,1.826-2.121Zm-3.145,8.354-1.826-2.121,1.3-1.513a.356.356,0,0,1,.539,0l3.13,3.634Zm26.46-8.354H2196.4l3.267,3.792a.586.586,0,0,1,0,.769l-3.267,3.793h3.145l3.266-3.791a.593.593,0,0,0,0-.773Zm7.6,0-3.13,3.634a.356.356,0,0,1-.539,0l-1.3-1.513,1.826-2.121ZM2204,368.34l-1.826-2.121,1.3-1.513a.356.356,0,0,1,.539,0l3.13,3.634Zm26.46-8.354h-3.145l3.267,3.792a.587.587,0,0,1,0,.769l-3.267,3.793h3.145l3.265-3.791a.592.592,0,0,0,0-.773Zm7.6,0-3.13,3.634a.356.356,0,0,1-.539,0l-1.3-1.513,1.826-2.121Zm-3.145,8.354-1.826-2.121,1.3-1.513a.356.356,0,0,1,.539,0l3.13,3.634ZM2075.9,384.031h-3.145l3.267,3.793a.589.589,0,0,1,0,.771l-3.267,3.793h3.145l3.266-3.793a.593.593,0,0,0,0-.773Zm7.6,0-3.13,3.634a.356.356,0,0,1-.539,0l-1.3-1.513,1.826-2.121Zm-3.145,8.356-1.826-2.121,1.3-1.513a.356.356,0,0,1,.539,0l3.13,3.634Zm26.46-8.356h-3.145l3.267,3.793a.589.589,0,0,1,0,.771l-3.267,3.793h3.145l3.265-3.793a.592.592,0,0,0,0-.773Zm7.6,0-3.13,3.634a.356.356,0,0,1-.539,0l-1.3-1.513,1.826-2.121Zm-3.145,8.356-1.826-2.121,1.3-1.513a.356.356,0,0,1,.539,0l3.13,3.634Zm26.46-8.356h-3.145l3.267,3.793a.589.589,0,0,1,0,.771l-3.267,3.793h3.145l3.265-3.793a.592.592,0,0,0,0-.773Zm7.6,0-3.13,3.634a.356.356,0,0,1-.539,0l-1.3-1.513,1.826-2.121Zm-3.145,8.356-1.826-2.121,1.3-1.513a.356.356,0,0,1,.539,0l3.13,3.634Zm26.46-8.356h-3.145l3.267,3.793a.589.589,0,0,1,0,.771l-3.267,3.793h3.145l3.265-3.793a.593.593,0,0,0,0-.773Zm7.6,0-3.13,3.634a.356.356,0,0,1-.539,0l-1.3-1.513,1.826-2.121Zm-3.145,8.356-1.826-2.121,1.3-1.513a.356.356,0,0,1,.539,0l3.13,3.634Zm26.46-8.356H2196.4l3.267,3.793a.589.589,0,0,1,0,.771l-3.267,3.793h3.145l3.266-3.793a.593.593,0,0,0,0-.773Zm7.6,0-3.13,3.634a.356.356,0,0,1-.539,0l-1.3-1.513,1.826-2.121ZM2204,392.387l-1.826-2.121,1.3-1.513a.356.356,0,0,1,.539,0l3.13,3.634Zm26.46-8.356h-3.145l3.267,3.793a.589.589,0,0,1,0,.771l-3.267,3.793h3.145l3.265-3.793a.592.592,0,0,0,0-.773Zm7.6,0-3.13,3.634a.356.356,0,0,1-.539,0l-1.3-1.513,1.826-2.121Zm-3.145,8.356-1.826-2.121,1.3-1.513a.356.356,0,0,1,.539,0l3.13,3.634ZM2075.9,408.077h-3.145l3.267,3.792a.589.589,0,0,1,0,.771l-3.267,3.793h3.145l3.266-3.791a.593.593,0,0,0,0-.773Zm7.6,0-3.13,3.634a.356.356,0,0,1-.539,0l-1.3-1.513,1.826-2.121Zm-3.145,8.356-1.826-2.121,1.3-1.513a.356.356,0,0,1,.539,0l3.13,3.634Zm26.46-8.356h-3.145l3.267,3.792a.589.589,0,0,1,0,.771l-3.267,3.793h3.145l3.265-3.791a.592.592,0,0,0,0-.773Zm7.6,0-3.13,3.634a.356.356,0,0,1-.539,0l-1.3-1.513,1.826-2.121Zm-3.145,8.356-1.826-2.121,1.3-1.513a.356.356,0,0,1,.539,0l3.13,3.634Zm26.46-8.356h-3.145l3.267,3.792a.589.589,0,0,1,0,.771l-3.267,3.793h3.145l3.265-3.791a.592.592,0,0,0,0-.773Zm7.6,0-3.13,3.634a.356.356,0,0,1-.539,0l-1.3-1.513,1.826-2.121Zm-3.145,8.356-1.826-2.121,1.3-1.513a.356.356,0,0,1,.539,0l3.13,3.634Zm26.46-8.356h-3.145l3.267,3.792a.589.589,0,0,1,0,.771l-3.267,3.793h3.145l3.265-3.791a.593.593,0,0,0,0-.773Zm7.6,0-3.13,3.634a.356.356,0,0,1-.539,0l-1.3-1.513,1.826-2.121Zm-3.145,8.356-1.826-2.121,1.3-1.513a.356.356,0,0,1,.539,0l3.13,3.634Zm26.46-8.356H2196.4l3.267,3.792a.589.589,0,0,1,0,.771l-3.267,3.793h3.145l3.266-3.791a.593.593,0,0,0,0-.773Zm7.6,0-3.13,3.634a.356.356,0,0,1-.539,0l-1.3-1.513,1.826-2.121ZM2204,416.433l-1.826-2.121,1.3-1.513a.356.356,0,0,1,.539,0l3.13,3.634Zm26.46-8.356h-3.145l3.267,3.792a.589.589,0,0,1,0,.771l-3.267,3.793h3.145l3.265-3.791a.592.592,0,0,0,0-.773Zm7.6,0-3.13,3.634a.356.356,0,0,1-.539,0l-1.3-1.513,1.826-2.121Zm-3.145,8.356-1.826-2.121,1.3-1.513a.356.356,0,0,1,.539,0l3.13,3.634ZM2075.9,432.125h-3.145l3.267,3.793a.586.586,0,0,1,0,.769l-3.267,3.794h3.145l3.266-3.793a.593.593,0,0,0,0-.773Zm7.6,0-3.13,3.634a.356.356,0,0,1-.539,0l-1.3-1.513,1.826-2.121Zm-3.145,8.356-1.826-2.121,1.3-1.513a.354.354,0,0,1,.539,0l3.13,3.634Zm26.46-8.356h-3.145l3.267,3.793a.586.586,0,0,1,0,.769l-3.267,3.794h3.145l3.265-3.793a.592.592,0,0,0,0-.773Zm7.6,0-3.13,3.634a.356.356,0,0,1-.539,0l-1.3-1.513,1.826-2.121Zm-3.145,8.356-1.826-2.121,1.3-1.513a.354.354,0,0,1,.539,0l3.13,3.634Zm26.46-8.356h-3.145l3.267,3.793a.586.586,0,0,1,0,.769l-3.267,3.794h3.145l3.265-3.793a.592.592,0,0,0,0-.773Zm7.6,0-3.13,3.634a.356.356,0,0,1-.539,0l-1.3-1.513,1.826-2.121Zm-3.145,8.356-1.826-2.121,1.3-1.513a.353.353,0,0,1,.539,0l3.13,3.634Zm26.46-8.356h-3.145l3.267,3.793a.587.587,0,0,1,0,.769l-3.267,3.794h3.145l3.265-3.793a.593.593,0,0,0,0-.773Zm7.6,0-3.13,3.634a.356.356,0,0,1-.539,0l-1.3-1.513,1.826-2.121Zm-3.145,8.356-1.826-2.121,1.3-1.513a.353.353,0,0,1,.539,0l3.13,3.634Zm26.46-8.356H2196.4l3.267,3.793a.586.586,0,0,1,0,.769l-3.267,3.794h3.145l3.266-3.793a.593.593,0,0,0,0-.773Zm7.6,0-3.13,3.634a.356.356,0,0,1-.539,0l-1.3-1.513,1.826-2.121ZM2204,440.481l-1.826-2.121,1.3-1.513a.354.354,0,0,1,.539,0l3.13,3.634Zm26.46-8.356h-3.145l3.267,3.793a.587.587,0,0,1,0,.769l-3.267,3.794h3.145l3.265-3.793a.592.592,0,0,0,0-.773Zm7.6,0-3.13,3.634a.356.356,0,0,1-.539,0l-1.3-1.513,1.826-2.121Zm-3.145,8.356-1.826-2.121,1.3-1.513a.354.354,0,0,1,.539,0l3.13,3.634ZM2075.9,456.171h-3.145l3.267,3.793a.589.589,0,0,1,0,.771l-3.267,3.792h3.145l3.266-3.792a.593.593,0,0,0,0-.773Zm7.6,0-3.13,3.634a.356.356,0,0,1-.539,0l-1.3-1.513,1.826-2.121Zm-3.145,8.356-1.826-2.121,1.3-1.513a.356.356,0,0,1,.539,0l3.13,3.634Zm26.46-8.356h-3.145l3.267,3.793a.589.589,0,0,1,0,.771l-3.267,3.792h3.145l3.265-3.792a.592.592,0,0,0,0-.773Zm7.6,0-3.13,3.634a.356.356,0,0,1-.539,0l-1.3-1.513,1.826-2.121Zm-3.145,8.356-1.826-2.121,1.3-1.513a.356.356,0,0,1,.539,0l3.13,3.634Zm26.46-8.356h-3.145l3.267,3.793a.589.589,0,0,1,0,.771l-3.267,3.792h3.145l3.265-3.792a.592.592,0,0,0,0-.773Zm7.6,0-3.13,3.634a.356.356,0,0,1-.539,0l-1.3-1.513,1.826-2.121Zm-3.145,8.356-1.826-2.121,1.3-1.513a.356.356,0,0,1,.539,0l3.13,3.634Zm26.46-8.356h-3.145l3.267,3.793a.589.589,0,0,1,0,.771l-3.267,3.792h3.145l3.265-3.792a.593.593,0,0,0,0-.773Zm7.6,0-3.13,3.634a.356.356,0,0,1-.539,0l-1.3-1.513,1.826-2.121Zm-3.145,8.356-1.826-2.121,1.3-1.513a.356.356,0,0,1,.539,0l3.13,3.634Zm26.46-8.356H2196.4l3.267,3.793a.589.589,0,0,1,0,.771l-3.267,3.792h3.145l3.266-3.792a.593.593,0,0,0,0-.773Zm7.6,0-3.13,3.634a.356.356,0,0,1-.539,0l-1.3-1.513,1.826-2.121ZM2204,464.526l-1.826-2.121,1.3-1.513a.356.356,0,0,1,.539,0l3.13,3.634Zm26.46-8.356h-3.145l3.267,3.793a.589.589,0,0,1,0,.771l-3.267,3.792h3.145l3.265-3.792a.592.592,0,0,0,0-.773Zm7.6,0-3.13,3.634a.356.356,0,0,1-.539,0l-1.3-1.513,1.826-2.121Zm-3.145,8.356-1.826-2.121,1.3-1.513a.356.356,0,0,1,.539,0l3.13,3.634ZM2075.9,480.216h-3.145l3.267,3.793a.589.589,0,0,1,0,.771l-3.267,3.793h3.145l3.266-3.791a.593.593,0,0,0,0-.773Zm7.6,0-3.13,3.634a.354.354,0,0,1-.539,0l-1.3-1.513,1.826-2.121Zm-3.145,8.356-1.826-2.121,1.3-1.513a.356.356,0,0,1,.539,0l3.13,3.634Zm26.46-8.356h-3.145l3.267,3.793a.589.589,0,0,1,0,.771l-3.267,3.793h3.145l3.265-3.791a.592.592,0,0,0,0-.773Zm7.6,0-3.13,3.634a.354.354,0,0,1-.539,0l-1.3-1.513,1.826-2.121Zm-3.145,8.356-1.826-2.121,1.3-1.513a.356.356,0,0,1,.539,0l3.13,3.634Zm26.46-8.356h-3.145l3.267,3.793a.589.589,0,0,1,0,.771l-3.267,3.793h3.145l3.265-3.791a.592.592,0,0,0,0-.773Zm7.6,0-3.13,3.634a.353.353,0,0,1-.539,0l-1.3-1.513,1.826-2.121Zm-3.145,8.356-1.826-2.121,1.3-1.513a.356.356,0,0,1,.539,0l3.13,3.634Zm26.46-8.356h-3.145l3.267,3.793a.589.589,0,0,1,0,.771l-3.267,3.793h3.145l3.265-3.791a.593.593,0,0,0,0-.773Zm7.6,0-3.13,3.634a.353.353,0,0,1-.539,0l-1.3-1.513,1.826-2.121Zm-3.145,8.356-1.826-2.121,1.3-1.513a.356.356,0,0,1,.539,0l3.13,3.634Zm26.46-8.356H2196.4l3.267,3.793a.589.589,0,0,1,0,.771l-3.267,3.793h3.145l3.266-3.791a.593.593,0,0,0,0-.773Zm7.6,0-3.13,3.634a.354.354,0,0,1-.539,0l-1.3-1.513,1.826-2.121ZM2204,488.572l-1.826-2.121,1.3-1.513a.356.356,0,0,1,.539,0l3.13,3.634Zm26.46-8.356h-3.145l3.267,3.793a.589.589,0,0,1,0,.771l-3.267,3.793h3.145l3.265-3.791a.592.592,0,0,0,0-.773Zm7.6,0-3.13,3.634a.354.354,0,0,1-.539,0l-1.3-1.513,1.826-2.121Zm-3.145,8.356-1.826-2.121,1.3-1.513a.356.356,0,0,1,.539,0l3.13,3.634Z" transform="translate(-2072.751 -335.938)"/></g><g transform="translate(1378.204 1207.864)"><path class="a" d="M2172.273,333.694h-6.407l6.656,7.728a1.2,1.2,0,0,1,0,1.571l-6.656,7.728h6.407l6.654-7.726a1.2,1.2,0,0,0,0-1.575Zm15.481,0-6.378,7.405a.725.725,0,0,1-1.1,0l-2.655-3.082,3.723-4.324Zm-6.409,17.027-3.723-4.322,2.655-3.083a.725.725,0,0,1,1.1,0l6.378,7.405Zm21.84-17.027h-6.407l6.656,7.728a1.2,1.2,0,0,1,0,1.571l-6.656,7.728h6.407l6.654-7.726a1.2,1.2,0,0,0,0-1.575Zm15.481,0-6.378,7.405a.726.726,0,0,1-1.1,0l-2.655-3.082,3.723-4.324Zm-6.409,17.027-3.723-4.322,2.655-3.083a.726.726,0,0,1,1.1,0l6.378,7.405Zm21.84-17.027h-6.407l6.656,7.728a1.2,1.2,0,0,1,0,1.571l-6.656,7.728h6.407l6.653-7.726a1.2,1.2,0,0,0,0-1.575Zm15.481,0L2243.2,341.1a.726.726,0,0,1-1.1,0l-2.655-3.082,3.723-4.324Zm-6.409,17.027-3.723-4.322,2.655-3.083a.726.726,0,0,1,1.1,0l6.377,7.405Zm21.84-17.027H2258.6l6.656,7.728a1.205,1.205,0,0,1,0,1.571l-6.656,7.728h6.407l6.653-7.726a1.2,1.2,0,0,0,0-1.575Zm15.481,0-6.378,7.405a.725.725,0,0,1-1.1,0l-2.655-3.082,3.723-4.324Zm-6.409,17.027-3.723-4.322,2.655-3.083a.725.725,0,0,1,1.1,0l6.378,7.405Zm21.84-17.027h-6.407l6.656,7.728a1.2,1.2,0,0,1,0,1.571l-6.656,7.728h6.407l6.654-7.726a1.205,1.205,0,0,0,0-1.575Zm15.481,0-6.378,7.405a.725.725,0,0,1-1.1,0l-2.655-3.082,3.723-4.324Zm-6.409,17.027-3.723-4.322,2.655-3.083a.725.725,0,0,1,1.1,0l6.378,7.405Zm21.84-17.027h-6.407l6.656,7.728a1.2,1.2,0,0,1,0,1.571l-6.656,7.728h6.407l6.654-7.726a1.2,1.2,0,0,0,0-1.575Zm15.481,0-6.378,7.405a.726.726,0,0,1-1.1,0l-2.655-3.082,3.723-4.324Zm-6.409,17.027-3.723-4.322,2.655-3.083a.726.726,0,0,1,1.1,0l6.378,7.405Zm-163.633,7.021h-6.407l6.656,7.728a1.2,1.2,0,0,1,0,1.569l-6.656,7.728h6.407l6.654-7.724a1.207,1.207,0,0,0,0-1.576Zm15.481,0-6.378,7.4a.725.725,0,0,1-1.1,0l-2.655-3.082,3.723-4.322Zm-6.409,17.025-3.723-4.322,2.655-3.082a.725.725,0,0,1,1.1,0l6.378,7.4Zm21.84-17.025h-6.407l6.656,7.728a1.2,1.2,0,0,1,0,1.569l-6.656,7.728h6.407l6.654-7.724a1.207,1.207,0,0,0,0-1.576Zm15.481,0-6.378,7.4a.726.726,0,0,1-1.1,0l-2.655-3.082,3.723-4.322Zm-6.409,17.025-3.723-4.322,2.655-3.082a.726.726,0,0,1,1.1,0l6.378,7.4Zm21.84-17.025h-6.407l6.656,7.728a1.2,1.2,0,0,1,0,1.569l-6.656,7.728h6.407l6.653-7.724a1.207,1.207,0,0,0,0-1.576Zm15.481,0-6.377,7.4a.726.726,0,0,1-1.1,0l-2.655-3.082,3.723-4.322Zm-6.409,17.025-3.723-4.322,2.655-3.082a.726.726,0,0,1,1.1,0l6.377,7.4Zm21.84-17.025H2258.6l6.656,7.728a1.2,1.2,0,0,1,0,1.569l-6.656,7.728h6.407l6.653-7.724a1.207,1.207,0,0,0,0-1.576Zm15.481,0-6.378,7.4a.725.725,0,0,1-1.1,0l-2.655-3.082,3.723-4.322Zm-6.409,17.025-3.723-4.322,2.655-3.082a.725.725,0,0,1,1.1,0l6.378,7.4Zm21.84-17.025h-6.407l6.656,7.728a1.2,1.2,0,0,1,0,1.569l-6.656,7.728h6.407l6.654-7.724a1.208,1.208,0,0,0,0-1.576Zm15.481,0-6.378,7.4a.725.725,0,0,1-1.1,0l-2.655-3.082,3.723-4.322Zm-6.409,17.025-3.723-4.322,2.655-3.082a.725.725,0,0,1,1.1,0l6.378,7.4Zm21.84-17.025h-6.407l6.656,7.728a1.2,1.2,0,0,1,0,1.569l-6.656,7.728h6.407l6.654-7.724a1.207,1.207,0,0,0,0-1.576Zm15.481,0-6.378,7.4a.726.726,0,0,1-1.1,0l-2.655-3.082,3.723-4.322Zm-6.409,17.025-3.723-4.322,2.655-3.082a.726.726,0,0,1,1.1,0l6.378,7.4Zm-163.633,7.021h-6.407l6.656,7.728a1.2,1.2,0,0,1,0,1.571l-6.656,7.728h6.407l6.654-7.726a1.2,1.2,0,0,0,0-1.575Zm15.481,0-6.378,7.405a.725.725,0,0,1-1.1,0l-2.655-3.083,3.723-4.322Zm-6.409,17.027-3.723-4.324,2.655-3.082a.725.725,0,0,1,1.1,0l6.378,7.405Zm21.84-17.027h-6.407l6.656,7.728a1.2,1.2,0,0,1,0,1.571l-6.656,7.728h6.407l6.654-7.726a1.2,1.2,0,0,0,0-1.575Zm15.481,0-6.378,7.405a.726.726,0,0,1-1.1,0l-2.655-3.083,3.723-4.322Zm-6.409,17.027-3.723-4.324,2.655-3.082a.726.726,0,0,1,1.1,0l6.378,7.405Zm21.84-17.027h-6.407l6.656,7.728a1.2,1.2,0,0,1,0,1.571l-6.656,7.728h6.407l6.653-7.726a1.2,1.2,0,0,0,0-1.575Zm15.481,0-6.377,7.405a.726.726,0,0,1-1.1,0l-2.655-3.083,3.723-4.322Zm-6.409,17.027-3.723-4.324,2.655-3.082a.726.726,0,0,1,1.1,0l6.377,7.405Zm21.84-17.027H2258.6l6.656,7.728a1.205,1.205,0,0,1,0,1.571l-6.656,7.728h6.407l6.653-7.726a1.2,1.2,0,0,0,0-1.575Zm15.481,0-6.378,7.405a.725.725,0,0,1-1.1,0l-2.655-3.083,3.723-4.322Zm-6.409,17.027-3.723-4.324,2.655-3.082a.725.725,0,0,1,1.1,0l6.378,7.405Zm21.84-17.027h-6.407l6.656,7.728a1.2,1.2,0,0,1,0,1.571l-6.656,7.728h6.407l6.654-7.726a1.205,1.205,0,0,0,0-1.575Zm15.481,0-6.378,7.405a.725.725,0,0,1-1.1,0l-2.655-3.083,3.723-4.322Zm-6.409,17.027-3.723-4.324,2.655-3.082a.725.725,0,0,1,1.1,0l6.378,7.405Zm21.84-17.027h-6.407l6.656,7.728a1.2,1.2,0,0,1,0,1.571l-6.656,7.728h6.407l6.654-7.726a1.2,1.2,0,0,0,0-1.575Zm15.481,0-6.378,7.405a.726.726,0,0,1-1.1,0l-2.655-3.083,3.723-4.322Zm-6.409,17.027-3.723-4.324,2.655-3.082a.726.726,0,0,1,1.1,0l6.378,7.405Zm-163.633,7.019h-6.407l6.656,7.728a1.2,1.2,0,0,1,0,1.571l-6.656,7.728h6.407l6.654-7.726a1.2,1.2,0,0,0,0-1.575Zm15.481,0-6.378,7.405a.725.725,0,0,1-1.1,0l-2.655-3.081,3.723-4.324Zm-6.409,17.027-3.723-4.322,2.655-3.083a.728.728,0,0,1,1.1,0l6.378,7.405Zm21.84-17.027h-6.407l6.656,7.728a1.2,1.2,0,0,1,0,1.571l-6.656,7.728h6.407l6.654-7.726a1.2,1.2,0,0,0,0-1.575Zm15.481,0-6.378,7.405a.725.725,0,0,1-1.1,0l-2.655-3.081,3.723-4.324Zm-6.409,17.027-3.723-4.322,2.655-3.083a.728.728,0,0,1,1.1,0l6.378,7.405Zm21.84-17.027h-6.407l6.656,7.728a1.2,1.2,0,0,1,0,1.571l-6.656,7.728h6.407l6.653-7.726a1.2,1.2,0,0,0,0-1.575Zm15.481,0-6.377,7.405a.725.725,0,0,1-1.1,0l-2.655-3.081,3.723-4.324Zm-6.409,17.027-3.723-4.322,2.655-3.083a.728.728,0,0,1,1.1,0l6.377,7.405Zm21.84-17.027H2258.6l6.656,7.728a1.205,1.205,0,0,1,0,1.571l-6.656,7.728h6.407l6.653-7.726a1.2,1.2,0,0,0,0-1.575Zm15.481,0-6.378,7.405a.725.725,0,0,1-1.1,0l-2.655-3.081,3.723-4.324Zm-6.409,17.027-3.723-4.322,2.655-3.083a.728.728,0,0,1,1.1,0l6.378,7.405Zm21.84-17.027h-6.407l6.656,7.728a1.2,1.2,0,0,1,0,1.571l-6.656,7.728h6.407l6.654-7.726a1.205,1.205,0,0,0,0-1.575Zm15.481,0-6.378,7.405a.725.725,0,0,1-1.1,0l-2.655-3.081,3.723-4.324Zm-6.409,17.027-3.723-4.322,2.655-3.083a.728.728,0,0,1,1.1,0l6.378,7.405Zm21.84-17.027h-6.407l6.656,7.728a1.2,1.2,0,0,1,0,1.571l-6.656,7.728h6.407l6.654-7.726a1.2,1.2,0,0,0,0-1.575Zm15.481,0-6.378,7.405a.725.725,0,0,1-1.1,0l-2.655-3.081,3.723-4.324Zm-6.409,17.027-3.723-4.322,2.655-3.083a.728.728,0,0,1,1.1,0l6.378,7.405Zm-163.633,7.021h-6.407l6.656,7.728a1.2,1.2,0,0,1,0,1.569l-6.656,7.728h6.407l6.654-7.724a1.207,1.207,0,0,0,0-1.577Zm15.481,0-6.378,7.405a.728.728,0,0,1-1.1,0l-2.655-3.083,3.723-4.322Zm-6.409,17.025-3.723-4.322,2.655-3.082a.725.725,0,0,1,1.1,0l6.378,7.4Zm21.84-17.025h-6.407l6.656,7.728a1.2,1.2,0,0,1,0,1.569l-6.656,7.728h6.407l6.654-7.724a1.207,1.207,0,0,0,0-1.577Zm15.481,0-6.378,7.405a.728.728,0,0,1-1.1,0l-2.655-3.083,3.723-4.322Zm-6.409,17.025-3.723-4.322,2.655-3.082a.726.726,0,0,1,1.1,0l6.378,7.4Zm21.84-17.025h-6.407l6.656,7.728a1.2,1.2,0,0,1,0,1.569l-6.656,7.728h6.407l6.653-7.724a1.207,1.207,0,0,0,0-1.577Zm15.481,0-6.377,7.405a.728.728,0,0,1-1.1,0l-2.655-3.083,3.723-4.322Zm-6.409,17.025-3.723-4.322,2.655-3.082a.726.726,0,0,1,1.1,0l6.377,7.4Zm21.84-17.025H2258.6l6.656,7.728a1.2,1.2,0,0,1,0,1.569l-6.656,7.728h6.407l6.653-7.724a1.207,1.207,0,0,0,0-1.577Zm15.481,0-6.378,7.405a.728.728,0,0,1-1.1,0l-2.655-3.083,3.723-4.322Zm-6.409,17.025-3.723-4.322,2.655-3.082a.725.725,0,0,1,1.1,0l6.378,7.4Zm21.84-17.025h-6.407l6.656,7.728a1.2,1.2,0,0,1,0,1.569l-6.656,7.728h6.407l6.654-7.724a1.208,1.208,0,0,0,0-1.577Zm15.481,0-6.378,7.405a.728.728,0,0,1-1.1,0l-2.655-3.083,3.723-4.322Zm-6.409,17.025-3.723-4.322,2.655-3.082a.725.725,0,0,1,1.1,0l6.378,7.4Zm21.84-17.025h-6.407l6.656,7.728a1.2,1.2,0,0,1,0,1.569l-6.656,7.728h6.407l6.654-7.724a1.208,1.208,0,0,0,0-1.577Zm15.481,0-6.378,7.405a.728.728,0,0,1-1.1,0l-2.655-3.083,3.723-4.322Zm-6.409,17.025-3.723-4.322,2.655-3.082a.726.726,0,0,1,1.1,0l6.378,7.4Zm-163.633,7.021h-6.407l6.656,7.728a1.2,1.2,0,0,1,0,1.571l-6.656,7.728h6.407l6.654-7.726a1.2,1.2,0,0,0,0-1.575Zm15.481,0-6.378,7.405a.725.725,0,0,1-1.1,0l-2.655-3.083,3.723-4.322Zm-6.409,17.027-3.723-4.324,2.655-3.081a.725.725,0,0,1,1.1,0l6.378,7.405Zm21.84-17.027h-6.407l6.656,7.728a1.2,1.2,0,0,1,0,1.571l-6.656,7.728h6.407l6.654-7.726a1.2,1.2,0,0,0,0-1.575Zm15.481,0-6.378,7.405a.726.726,0,0,1-1.1,0l-2.655-3.083,3.723-4.322Zm-6.409,17.027-3.723-4.324,2.655-3.081a.725.725,0,0,1,1.1,0l6.378,7.405Zm21.84-17.027h-6.407l6.656,7.728a1.2,1.2,0,0,1,0,1.571l-6.656,7.728h6.407l6.653-7.726a1.2,1.2,0,0,0,0-1.575Zm15.481,0-6.377,7.405a.726.726,0,0,1-1.1,0l-2.655-3.083,3.723-4.322Zm-6.409,17.027-3.723-4.324,2.655-3.081a.725.725,0,0,1,1.1,0l6.377,7.405Zm21.84-17.027H2258.6l6.656,7.728a1.205,1.205,0,0,1,0,1.571l-6.656,7.728h6.407l6.653-7.726a1.2,1.2,0,0,0,0-1.575Zm15.481,0-6.378,7.405a.725.725,0,0,1-1.1,0l-2.655-3.083,3.723-4.322Zm-6.409,17.027-3.723-4.324,2.655-3.081a.725.725,0,0,1,1.1,0l6.378,7.405Zm21.84-17.027h-6.407l6.656,7.728a1.2,1.2,0,0,1,0,1.571l-6.656,7.728h6.407l6.654-7.726a1.206,1.206,0,0,0,0-1.575Zm15.481,0-6.378,7.405a.725.725,0,0,1-1.1,0l-2.655-3.083,3.723-4.322Zm-6.409,17.027-3.723-4.324,2.655-3.081a.725.725,0,0,1,1.1,0l6.378,7.405Zm21.84-17.027h-6.407l6.656,7.728a1.2,1.2,0,0,1,0,1.571l-6.656,7.728h6.407l6.654-7.726a1.2,1.2,0,0,0,0-1.575Zm15.481,0-6.378,7.405a.726.726,0,0,1-1.1,0l-2.655-3.083,3.723-4.322Zm-6.409,17.027-3.723-4.324,2.655-3.081a.725.725,0,0,1,1.1,0l6.378,7.405Zm-163.633,7.019h-6.407l6.656,7.728a1.2,1.2,0,0,1,0,1.571L2165.867,495h6.407l6.654-7.726a1.2,1.2,0,0,0,0-1.575Zm15.481,0-6.378,7.405a.725.725,0,0,1-1.1,0l-2.655-3.081,3.723-4.324ZM2181.346,495l-3.723-4.322,2.655-3.083a.728.728,0,0,1,1.1,0l6.378,7.405Zm21.84-17.027h-6.407l6.656,7.728a1.2,1.2,0,0,1,0,1.571L2196.779,495h6.407l6.654-7.726a1.2,1.2,0,0,0,0-1.575Zm15.481,0-6.378,7.405a.725.725,0,0,1-1.1,0l-2.655-3.081,3.723-4.324ZM2212.258,495l-3.723-4.322,2.655-3.083a.728.728,0,0,1,1.1,0l6.378,7.405Zm21.84-17.027h-6.407l6.656,7.728a1.2,1.2,0,0,1,0,1.571L2227.691,495h6.407l6.653-7.726a1.2,1.2,0,0,0,0-1.575Zm15.481,0-6.377,7.405a.725.725,0,0,1-1.1,0l-2.655-3.081,3.723-4.324ZM2243.17,495l-3.723-4.322,2.655-3.083a.728.728,0,0,1,1.1,0l6.377,7.405Zm21.84-17.027H2258.6l6.656,7.728a1.205,1.205,0,0,1,0,1.571L2258.6,495h6.407l6.653-7.726a1.2,1.2,0,0,0,0-1.575Zm15.481,0-6.378,7.405a.725.725,0,0,1-1.1,0l-2.655-3.081,3.723-4.324ZM2274.082,495l-3.723-4.322,2.655-3.083a.728.728,0,0,1,1.1,0l6.378,7.405Zm21.84-17.027h-6.407l6.656,7.728a1.2,1.2,0,0,1,0,1.571L2289.515,495h6.407l6.654-7.726a1.206,1.206,0,0,0,0-1.575Zm15.481,0-6.378,7.405a.725.725,0,0,1-1.1,0l-2.655-3.081,3.723-4.324ZM2304.994,495l-3.723-4.322,2.655-3.083a.728.728,0,0,1,1.1,0L2311.4,495Zm21.84-17.027h-6.407l6.656,7.728a1.2,1.2,0,0,1,0,1.571L2320.427,495h6.407l6.654-7.726a1.2,1.2,0,0,0,0-1.575Zm15.481,0-6.378,7.405a.725.725,0,0,1-1.1,0l-2.655-3.081,3.723-4.324ZM2335.906,495l-3.723-4.322,2.655-3.083a.728.728,0,0,1,1.1,0l6.378,7.405Z" transform="translate(-2165.867 -333.694)"/></g><g transform="translate(1559.813 1204)"><g transform="translate(0 0)"><path class="a" d="M2287.874,339.083l-3.748,4.353,5.257,6.105-5.257,6.105,3.748,4.353a1.025,1.025,0,0,0,1.551,0l9.007-10.458-9.007-10.458A1.022,1.022,0,0,0,2287.874,339.083Z" transform="translate(-2236.608 -325.493)"/><path class="a" d="M2303.874,351.528l-3.748,4.353,5.257,6.105-5.257,6.105,3.748,4.353a1.022,1.022,0,0,0,1.551,0l9.007-10.458-9.007-10.458A1.025,1.025,0,0,0,2303.874,351.528Z" transform="translate(-2221.696 -313.893)"/><path class="a" d="M2287.874,351.528l-3.748,4.353,5.257,6.105-5.257,6.105,3.748,4.353a1.022,1.022,0,0,0,1.551,0l9.007-10.458-9.007-10.458A1.025,1.025,0,0,0,2287.874,351.528Z" transform="translate(-2236.608 -313.893)"/><path class="a" d="M2309.978,487.067l-9.4-10.91,9.4-10.912a1.7,1.7,0,0,0,0-2.224l-9.4-10.912,9.4-10.91a1.707,1.707,0,0,0,0-2.226l-9.4-10.91,9.4-10.912a1.7,1.7,0,0,0,0-2.224l-9.4-10.912,9.4-10.91a1.7,1.7,0,0,0,0-2.224l-9.4-10.912,9.4-10.91a1.707,1.707,0,0,0,0-2.226l-9.4-10.91,9.4-10.912a1.7,1.7,0,0,0,0-2.224l-9.4-10.912h-9.05l9.4,10.916a1.7,1.7,0,0,1,0,2.218l-9.4,10.914,9.4,10.914a1.7,1.7,0,0,1,0,2.218l-9.4,10.914,9.4,10.914a1.7,1.7,0,0,1,0,2.218l-9.4,10.914,9.4,10.916a1.7,1.7,0,0,1,0,2.218l-9.4,10.914,9.4,10.914a1.7,1.7,0,0,1,0,2.218l-9.4,10.914,9.4,10.914a1.7,1.7,0,0,1,0,2.218l-9.4,10.916,9.4,10.914a1.7,1.7,0,0,1,0,2.218l-9.4,10.914h9.05l9.4-10.912A1.7,1.7,0,0,0,2309.978,487.067Z" transform="translate(-2229.707 -331.877)"/><path class="a" d="M2287.874,363.974l-3.748,4.355,5.257,6.1-5.257,6.105,3.748,4.355a1.025,1.025,0,0,0,1.551,0l9.007-10.46-9.007-10.458A1.025,1.025,0,0,0,2287.874,363.974Z" transform="translate(-2236.608 -302.293)"/><path class="a" d="M2287.874,376.422l-3.748,4.353,5.257,6.105-5.257,6.105,3.748,4.353a1.025,1.025,0,0,0,1.551,0l9.007-10.458-9.007-10.458A1.022,1.022,0,0,0,2287.874,376.422Z" transform="translate(-2236.608 -290.693)"/><path class="a" d="M2284.126,337.982l3.748,4.355a1.025,1.025,0,0,0,1.551,0l9.007-10.46h-9.05Z" transform="translate(-2236.608 -331.877)"/><path class="a" d="M2303.874,388.867l-3.748,4.353,5.257,6.105-5.257,6.105,3.748,4.353a1.022,1.022,0,0,0,1.551,0l9.007-10.458-9.007-10.458A1.025,1.025,0,0,0,2303.874,388.867Z" transform="translate(-2221.696 -279.093)"/><path class="a" d="M2303.874,376.422l-3.748,4.353,5.257,6.105-5.257,6.105,3.748,4.353a1.025,1.025,0,0,0,1.551,0l9.007-10.458-9.007-10.458A1.022,1.022,0,0,0,2303.874,376.422Z" transform="translate(-2221.696 -290.693)"/><path class="a" d="M2303.874,363.974l-3.748,4.355,5.257,6.1-5.257,6.105,3.748,4.355a1.025,1.025,0,0,0,1.551,0l9.007-10.46-9.007-10.458A1.025,1.025,0,0,0,2303.874,363.974Z" transform="translate(-2221.696 -302.293)"/><path class="a" d="M2303.874,401.313l-3.748,4.355,5.257,6.105-5.257,6.1,3.748,4.355a1.025,1.025,0,0,0,1.551,0l9.007-10.458-9.007-10.46A1.025,1.025,0,0,0,2303.874,401.313Z" transform="translate(-2221.696 -267.493)"/><path class="a" d="M2287.874,388.867l-3.748,4.353,5.257,6.105-5.257,6.105,3.748,4.353a1.022,1.022,0,0,0,1.551,0l9.007-10.458-9.007-10.458A1.025,1.025,0,0,0,2287.874,388.867Z" transform="translate(-2236.608 -279.093)"/><path class="a" d="M2303.874,413.761l-3.748,4.353,5.257,6.105h9.05l-9.007-10.458A1.022,1.022,0,0,0,2303.874,413.761Z" transform="translate(-2221.696 -255.893)"/><path class="a" d="M2271.874,363.974l-3.748,4.355,5.257,6.1-5.257,6.105,3.748,4.355a1.025,1.025,0,0,0,1.552,0l9.007-10.46-9.007-10.458A1.025,1.025,0,0,0,2271.874,363.974Z" transform="translate(-2251.52 -302.293)"/><path class="a" d="M2271.874,401.313l-3.748,4.355,5.257,6.105-5.257,6.1,3.748,4.355a1.025,1.025,0,0,0,1.552,0l9.007-10.458-9.007-10.46A1.025,1.025,0,0,0,2271.874,401.313Z" transform="translate(-2251.52 -267.493)"/><path class="a" d="M2271.874,413.761l-3.748,4.353,5.257,6.105h9.05l-9.007-10.458A1.022,1.022,0,0,0,2271.874,413.761Z" transform="translate(-2251.52 -255.893)"/><path class="a" d="M2271.874,376.422l-3.748,4.353,5.257,6.105-5.257,6.105,3.748,4.353a1.025,1.025,0,0,0,1.552,0l9.007-10.458-9.007-10.458A1.022,1.022,0,0,0,2271.874,376.422Z" transform="translate(-2251.52 -290.693)"/><path class="a" d="M2271.874,388.867l-3.748,4.353,5.257,6.105-5.257,6.105,3.748,4.353a1.022,1.022,0,0,0,1.552,0l9.007-10.458-9.007-10.458A1.025,1.025,0,0,0,2271.874,388.867Z" transform="translate(-2251.52 -279.093)"/><path class="a" d="M2353.425,342.337l9.007-10.46h-9.05l-5.257,6.105,3.748,4.355A1.025,1.025,0,0,0,2353.425,342.337Z" transform="translate(-2176.96 -331.877)"/><path class="a" d="M2277.978,487.067l-9.4-10.91,9.4-10.912a1.7,1.7,0,0,0,0-2.224l-9.4-10.912,9.4-10.91a1.705,1.705,0,0,0,0-2.226l-9.4-10.91,9.4-10.912a1.7,1.7,0,0,0,0-2.224l-9.4-10.912,9.4-10.91a1.7,1.7,0,0,0,0-2.224l-9.4-10.912,9.4-10.91a1.705,1.705,0,0,0,0-2.226l-9.4-10.91,9.4-10.912a1.7,1.7,0,0,0,0-2.224l-9.4-10.912h-9.049l9.4,10.916a1.7,1.7,0,0,1,0,2.218l-9.4,10.914,9.4,10.914a1.7,1.7,0,0,1,0,2.218l-9.4,10.914,9.4,10.914a1.7,1.7,0,0,1,0,2.218l-9.4,10.914,9.4,10.916a1.7,1.7,0,0,1,0,2.218l-9.4,10.914,9.4,10.914a1.7,1.7,0,0,1,0,2.218l-9.4,10.914,9.4,10.914a1.7,1.7,0,0,1,0,2.218l-9.4,10.916,9.4,10.914a1.7,1.7,0,0,1,0,2.218l-9.4,10.914h9.049l9.4-10.912A1.7,1.7,0,0,0,2277.978,487.067Z" transform="translate(-2259.531 -331.877)"/><path class="a" d="M2271.874,339.083l-3.748,4.353,5.257,6.105-5.257,6.105,3.748,4.353a1.025,1.025,0,0,0,1.552,0l9.007-10.458-9.007-10.458A1.022,1.022,0,0,0,2271.874,339.083Z" transform="translate(-2251.52 -325.493)"/><path class="a" d="M2293.978,487.067l-9.4-10.91,9.4-10.912a1.7,1.7,0,0,0,0-2.224l-9.4-10.912,9.4-10.91a1.705,1.705,0,0,0,0-2.226l-9.4-10.91,9.4-10.912a1.7,1.7,0,0,0,0-2.224l-9.4-10.912,9.4-10.91a1.7,1.7,0,0,0,0-2.224l-9.4-10.912,9.4-10.91a1.705,1.705,0,0,0,0-2.226l-9.4-10.91,9.4-10.912a1.7,1.7,0,0,0,0-2.224l-9.4-10.912h-9.05l9.4,10.916a1.7,1.7,0,0,1,0,2.218l-9.4,10.914,9.4,10.914a1.7,1.7,0,0,1,0,2.218l-9.4,10.914,9.4,10.914a1.7,1.7,0,0,1,0,2.218l-9.4,10.914,9.4,10.916a1.7,1.7,0,0,1,0,2.218l-9.4,10.914,9.4,10.914a1.7,1.7,0,0,1,0,2.218l-9.4,10.914,9.4,10.914a1.7,1.7,0,0,1,0,2.218l-9.4,10.916,9.4,10.914a1.7,1.7,0,0,1,0,2.218l-9.4,10.914h9.05l9.4-10.912A1.7,1.7,0,0,0,2293.978,487.067Z" transform="translate(-2244.619 -331.877)"/><path class="a" d="M2268.126,337.982l3.748,4.355a1.025,1.025,0,0,0,1.552,0l9.007-10.46h-9.05Z" transform="translate(-2251.52 -331.877)"/><path class="a" d="M2287.874,413.761l-3.748,4.353,5.257,6.105h9.05l-9.007-10.458A1.022,1.022,0,0,0,2287.874,413.761Z" transform="translate(-2236.608 -255.893)"/><path class="a" d="M2271.874,351.528l-3.748,4.353,5.257,6.105-5.257,6.105,3.748,4.353a1.022,1.022,0,0,0,1.552,0l9.007-10.458-9.007-10.458A1.025,1.025,0,0,0,2271.874,351.528Z" transform="translate(-2251.52 -313.893)"/><path class="a" d="M2287.874,401.313l-3.748,4.355,5.257,6.105-5.257,6.1,3.748,4.355a1.025,1.025,0,0,0,1.551,0l9.007-10.458-9.007-10.46A1.025,1.025,0,0,0,2287.874,401.313Z" transform="translate(-2236.608 -267.493)"/><path class="a" d="M2303.874,339.083l-3.748,4.353,5.257,6.105-5.257,6.105,3.748,4.353a1.025,1.025,0,0,0,1.551,0l9.007-10.458-9.007-10.458A1.022,1.022,0,0,0,2303.874,339.083Z" transform="translate(-2221.696 -325.493)"/><path class="a" d="M2351.874,388.867l-3.748,4.353,5.257,6.105-5.257,6.105,3.748,4.353a1.022,1.022,0,0,0,1.551,0l9.007-10.458-9.007-10.458A1.025,1.025,0,0,0,2351.874,388.867Z" transform="translate(-2176.96 -279.093)"/><path class="a" d="M2335.874,351.528l-3.748,4.353,5.257,6.105-5.257,6.105,3.748,4.353a1.022,1.022,0,0,0,1.552,0l9.007-10.458-9.007-10.458A1.025,1.025,0,0,0,2335.874,351.528Z" transform="translate(-2191.872 -313.893)"/><path class="a" d="M2357.978,487.067l-9.4-10.91,9.4-10.912a1.7,1.7,0,0,0,0-2.224l-9.4-10.912,9.4-10.91a1.705,1.705,0,0,0,0-2.226l-9.4-10.91,9.4-10.912a1.7,1.7,0,0,0,0-2.224l-9.4-10.912,9.4-10.91a1.7,1.7,0,0,0,0-2.224l-9.4-10.912,9.4-10.91a1.705,1.705,0,0,0,0-2.226l-9.4-10.91,9.4-10.912a1.7,1.7,0,0,0,0-2.224l-9.4-10.912h-9.05l9.4,10.916a1.7,1.7,0,0,1,0,2.218l-9.4,10.914,9.4,10.914a1.7,1.7,0,0,1,0,2.218l-9.4,10.914,9.4,10.914a1.7,1.7,0,0,1,0,2.218l-9.4,10.914,9.4,10.916a1.7,1.7,0,0,1,0,2.218l-9.4,10.914,9.4,10.914a1.7,1.7,0,0,1,0,2.218l-9.4,10.914,9.4,10.914a1.7,1.7,0,0,1,0,2.218l-9.4,10.916,9.4,10.914a1.7,1.7,0,0,1,0,2.218l-9.4,10.914h9.05l9.4-10.912A1.7,1.7,0,0,0,2357.978,487.067Z" transform="translate(-2184.971 -331.877)"/><path class="a" d="M2332.126,337.982l3.748,4.355a1.025,1.025,0,0,0,1.552,0l9.007-10.46h-9.05Z" transform="translate(-2191.872 -331.877)"/><path class="a" d="M2335.874,339.083l-3.748,4.353,5.257,6.105-5.257,6.105,3.748,4.353a1.025,1.025,0,0,0,1.552,0l9.007-10.458-9.007-10.458A1.022,1.022,0,0,0,2335.874,339.083Z" transform="translate(-2191.872 -325.493)"/><path class="a" d="M2335.874,363.974l-3.748,4.355,5.257,6.1-5.257,6.105,3.748,4.355a1.025,1.025,0,0,0,1.552,0l9.007-10.46-9.007-10.458A1.025,1.025,0,0,0,2335.874,363.974Z" transform="translate(-2191.872 -302.293)"/><path class="a" d="M2335.874,376.422l-3.748,4.353,5.257,6.105-5.257,6.105,3.748,4.353a1.025,1.025,0,0,0,1.552,0l9.007-10.458-9.007-10.458A1.022,1.022,0,0,0,2335.874,376.422Z" transform="translate(-2191.872 -290.693)"/><path class="a" d="M2351.874,351.528l-3.748,4.353,5.257,6.105-5.257,6.105,3.748,4.353a1.022,1.022,0,0,0,1.551,0l9.007-10.458-9.007-10.458A1.025,1.025,0,0,0,2351.874,351.528Z" transform="translate(-2176.96 -313.893)"/><path class="a" d="M2351.874,363.974l-3.748,4.355,5.257,6.1-5.257,6.105,3.748,4.355a1.025,1.025,0,0,0,1.551,0l9.007-10.46-9.007-10.458A1.025,1.025,0,0,0,2351.874,363.974Z" transform="translate(-2176.96 -302.293)"/><path class="a" d="M2335.874,388.867l-3.748,4.353,5.257,6.105-5.257,6.105,3.748,4.353a1.022,1.022,0,0,0,1.552,0l9.007-10.458-9.007-10.458A1.025,1.025,0,0,0,2335.874,388.867Z" transform="translate(-2191.872 -279.093)"/><path class="a" d="M2351.874,339.083l-3.748,4.353,5.257,6.105-5.257,6.105,3.748,4.353a1.025,1.025,0,0,0,1.551,0l9.007-10.458-9.007-10.458A1.022,1.022,0,0,0,2351.874,339.083Z" transform="translate(-2176.96 -325.493)"/><path class="a" d="M2351.874,376.422l-3.748,4.353,5.257,6.105-5.257,6.105,3.748,4.353a1.025,1.025,0,0,0,1.551,0l9.007-10.458-9.007-10.458A1.022,1.022,0,0,0,2351.874,376.422Z" transform="translate(-2176.96 -290.693)"/><path class="a" d="M2351.874,413.761l-3.748,4.353,5.257,6.105h9.05l-9.007-10.458A1.022,1.022,0,0,0,2351.874,413.761Z" transform="translate(-2176.96 -255.893)"/><path class="a" d="M2351.874,401.313l-3.748,4.355,5.257,6.105-5.257,6.1,3.748,4.355a1.025,1.025,0,0,0,1.551,0l9.007-10.458-9.007-10.46A1.025,1.025,0,0,0,2351.874,401.313Z" transform="translate(-2176.96 -267.493)"/><path class="a" d="M2325.978,487.067l-9.4-10.91,9.4-10.912a1.7,1.7,0,0,0,0-2.224l-9.4-10.912,9.4-10.91a1.706,1.706,0,0,0,0-2.226l-9.4-10.91,9.4-10.912a1.7,1.7,0,0,0,0-2.224l-9.4-10.912,9.4-10.91a1.7,1.7,0,0,0,0-2.224l-9.4-10.912,9.4-10.91a1.706,1.706,0,0,0,0-2.226l-9.4-10.91,9.4-10.912a1.7,1.7,0,0,0,0-2.224l-9.4-10.912h-9.05l9.4,10.916a1.7,1.7,0,0,1,0,2.218l-9.4,10.914,9.4,10.914a1.7,1.7,0,0,1,0,2.218l-9.4,10.914,9.4,10.914a1.7,1.7,0,0,1,0,2.218l-9.4,10.914,9.4,10.916a1.7,1.7,0,0,1,0,2.218l-9.4,10.914,9.4,10.914a1.7,1.7,0,0,1,0,2.218l-9.4,10.914,9.4,10.914a1.7,1.7,0,0,1,0,2.218l-9.4,10.916,9.4,10.914a1.7,1.7,0,0,1,0,2.218l-9.4,10.914h9.05l9.4-10.912A1.7,1.7,0,0,0,2325.978,487.067Z" transform="translate(-2214.795 -331.877)"/><path class="a" d="M2319.874,401.313l-3.748,4.355,5.257,6.105-5.257,6.1,3.748,4.355a1.025,1.025,0,0,0,1.551,0l9.008-10.458-9.008-10.46A1.025,1.025,0,0,0,2319.874,401.313Z" transform="translate(-2206.784 -267.493)"/><path class="a" d="M2319.874,388.867l-3.748,4.353,5.257,6.105-5.257,6.105,3.748,4.353a1.022,1.022,0,0,0,1.551,0l9.008-10.458-9.008-10.458A1.025,1.025,0,0,0,2319.874,388.867Z" transform="translate(-2206.784 -279.093)"/><path class="a" d="M2319.874,376.422l-3.748,4.353,5.257,6.105-5.257,6.105,3.748,4.353a1.025,1.025,0,0,0,1.551,0l9.008-10.458-9.008-10.458A1.022,1.022,0,0,0,2319.874,376.422Z" transform="translate(-2206.784 -290.693)"/><path class="a" d="M2319.874,363.974l-3.748,4.355,5.257,6.1-5.257,6.105,3.748,4.355a1.025,1.025,0,0,0,1.551,0l9.008-10.46-9.008-10.458A1.025,1.025,0,0,0,2319.874,363.974Z" transform="translate(-2206.784 -302.293)"/><path class="a" d="M2319.874,413.761l-3.748,4.353,5.257,6.105h9.05l-9.008-10.458A1.022,1.022,0,0,0,2319.874,413.761Z" transform="translate(-2206.784 -255.893)"/><path class="a" d="M2335.874,401.313l-3.748,4.355,5.257,6.105-5.257,6.1,3.748,4.355a1.025,1.025,0,0,0,1.552,0l9.007-10.458-9.007-10.46A1.025,1.025,0,0,0,2335.874,401.313Z" transform="translate(-2191.872 -267.493)"/><path class="a" d="M2300.126,337.982l3.748,4.355a1.025,1.025,0,0,0,1.551,0l9.007-10.46h-9.05Z" transform="translate(-2221.696 -331.877)"/><path class="a" d="M2319.874,351.528l-3.748,4.353,5.257,6.105-5.257,6.105,3.748,4.353a1.022,1.022,0,0,0,1.551,0l9.008-10.458-9.008-10.458A1.025,1.025,0,0,0,2319.874,351.528Z" transform="translate(-2206.784 -313.893)"/><path class="a" d="M2341.978,487.067l-9.4-10.91,9.4-10.912a1.7,1.7,0,0,0,0-2.224l-9.4-10.912,9.4-10.91a1.705,1.705,0,0,0,0-2.226l-9.4-10.91,9.4-10.912a1.7,1.7,0,0,0,0-2.224l-9.4-10.912,9.4-10.91a1.7,1.7,0,0,0,0-2.224l-9.4-10.912,9.4-10.91a1.705,1.705,0,0,0,0-2.226l-9.4-10.91,9.4-10.912a1.7,1.7,0,0,0,0-2.224l-9.4-10.912h-9.05l9.4,10.916a1.7,1.7,0,0,1,0,2.218l-9.4,10.914,9.4,10.914a1.7,1.7,0,0,1,0,2.218l-9.4,10.914,9.4,10.914a1.7,1.7,0,0,1,0,2.218l-9.4,10.914,9.4,10.916a1.7,1.7,0,0,1,0,2.218l-9.4,10.914,9.4,10.914a1.7,1.7,0,0,1,0,2.218l-9.4,10.914,9.4,10.914a1.7,1.7,0,0,1,0,2.218l-9.4,10.916,9.4,10.914a1.7,1.7,0,0,1,0,2.218l-9.4,10.914h9.05l9.4-10.912A1.7,1.7,0,0,0,2341.978,487.067Z" transform="translate(-2199.883 -331.877)"/><path class="a" d="M2335.874,413.761l-3.748,4.353,5.257,6.105h9.05l-9.007-10.458A1.022,1.022,0,0,0,2335.874,413.761Z" transform="translate(-2191.872 -255.893)"/><path class="a" d="M2316.126,337.982l3.748,4.355a1.025,1.025,0,0,0,1.551,0l9.008-10.46h-9.05Z" transform="translate(-2206.784 -331.877)"/><path class="a" d="M2319.874,339.083l-3.748,4.353,5.257,6.105-5.257,6.105,3.748,4.353a1.025,1.025,0,0,0,1.551,0l9.008-10.458-9.008-10.458A1.022,1.022,0,0,0,2319.874,339.083Z" transform="translate(-2206.784 -325.493)"/></g></g></g></svg>