<svg xmlns="http://www.w3.org/2000/svg" width="24.84" height="28.979" viewBox="0 0 24.84 28.979"><defs><style>.a{fill:#fff;}</style></defs><g transform="translate(-4.5 -2.25)"><path class="a" d="M27.99,31.229H15.57a2.07,2.07,0,0,1-2.07-2.07v-3.1h2.07v3.1H27.99V4.32H15.57v3.1H13.5V4.32a2.07,2.07,0,0,1,2.07-2.07H27.99a2.07,2.07,0,0,1,2.07,2.07V29.16A2.07,2.07,0,0,1,27.99,31.229Z" transform="translate(-0.72 0)"/><path class="a" d="M15.461,22.211l3.7-3.716H4.5v-2.07H19.165l-3.7-3.716L16.92,11.25l6.21,6.21-6.21,6.21Z" transform="translate(0 -0.72)"/></g></svg>