<svg xmlns="http://www.w3.org/2000/svg" viewBox="0 0 167.84 174.5"><defs><style>.cls-1{fill:#f3f3f3;}</style></defs><g id="Layer_2" data-name="Layer 2"><g id="Layer_1-2" data-name="Layer 1"><path class="cls-1" d="M12.47,159.84H0v-40H12.47Zm47.8-32.63v-7.34h-40v35.31A4.66,4.66,0,0,0,25,159.84H60.27V152.5H35V142.24H57.63a1.12,1.12,0,0,0,1.12-1.11v-6.22H35v-7.7Zm106.42,0v-7.34h-40v35.31a4.66,4.66,0,0,0,4.66,4.66h35.31V152.5h-25.3V142.24h22.66a1.11,1.11,0,0,0,1.11-1.11v-6.22H141.39v-7.7Zm-83.56-7.34h-15L83.71,138a2.82,2.82,0,0,1,0,3.68l-15.6,18.1h15l15.58-18.1a2.81,2.81,0,0,0,0-3.69Zm36.26,0-14.94,17.35a1.69,1.69,0,0,1-2.57,0L95.66,130l8.72-10.13Zm-15,39.89-8.72-10.13,6.22-7.22a1.7,1.7,0,0,1,2.57,0l14.94,17.35Z"/><path class="cls-1" d="M39.35,0V58.72a44,44,0,1,0,88,.13V0ZM83.53,35.78,94.53,23a2,2,0,0,0,0-2.59l-11-12.76H94.12l11,12.76a2,2,0,0,1,0,2.6l-11,12.76Zm25.57,0L103,28.64l4.39-5.09a1.19,1.19,0,0,1,1.81,0l10.53,12.23Zm.05-15.89a1.2,1.2,0,0,1-1.81,0L103,14.8l6.15-7.14h10.58Z"/><path class="cls-1" d="M1.47,173.72a3.08,3.08,0,0,1-.8-2.29V167.2H2.24v4.3a1.93,1.93,0,0,0,.39,1.31,1.43,1.43,0,0,0,1.14.45,1.46,1.46,0,0,0,1.15-.45,2,2,0,0,0,.4-1.31v-4.3H6.88v4.23a3.06,3.06,0,0,1-.8,2.28,3.13,3.13,0,0,1-2.31.79A3.12,3.12,0,0,1,1.47,173.72Z"/><path class="cls-1" d="M22.71,167.2H24.2v7.21H23l-3.59-4.59v4.59H17.94V167.2h1.18l3.59,4.57Z"/><path class="cls-1" d="M35.3,174.41V167.2h1.6v7.21Z"/><path class="cls-1" d="M53.27,167.2h1.62l-3.24,7.21H50.37l-3.25-7.21h1.66L51,172.42Z"/><path class="cls-1" d="M65.11,174.41V167.2h5v1.24H66.67v1.68h3.21v1.24H66.67v1.81h3.41v1.24Z"/><path class="cls-1" d="M87.1,174.41H85.36l-1.24-2.3a1.07,1.07,0,0,0-.37-.39,1.13,1.13,0,0,0-.54-.11h-.79v2.8H80.84V167.2h3.32a2.86,2.86,0,0,1,1.91.56,2,2,0,0,1,.65,1.61,2.11,2.11,0,0,1-.45,1.37,2.2,2.2,0,0,1-1.28.72,1.63,1.63,0,0,1,1,.81Zm-2.19-4.25a1.07,1.07,0,0,0,0-1.51,1.61,1.61,0,0,0-1-.23H82.4v2h1.52A1.6,1.6,0,0,0,84.91,170.16Z"/><path class="cls-1" d="M98.58,174.28a3.74,3.74,0,0,1-1.25-.61l.51-1.13a4,4,0,0,0,2.34.72,2,2,0,0,0,1-.22.67.67,0,0,0,.37-.61.6.6,0,0,0-.33-.54,4.86,4.86,0,0,0-1.19-.38,6.15,6.15,0,0,1-1.51-.47,1.92,1.92,0,0,1-.83-.68,1.82,1.82,0,0,1-.26-1,2,2,0,0,1,.36-1.17,2.36,2.36,0,0,1,1-.8,3.57,3.57,0,0,1,1.51-.29,4.91,4.91,0,0,1,1.48.22,3,3,0,0,1,1.13.61l-.51,1.13a3.52,3.52,0,0,0-2.09-.73,1.75,1.75,0,0,0-1,.24.75.75,0,0,0-.36.66.62.62,0,0,0,.14.41,1.21,1.21,0,0,0,.46.28,6.31,6.31,0,0,0,.92.25,5.13,5.13,0,0,1,2,.79,1.6,1.6,0,0,1,.61,1.33,1.89,1.89,0,0,1-.79,1.61,3.59,3.59,0,0,1-2.19.59A5.53,5.53,0,0,1,98.58,174.28Z"/><path class="cls-1" d="M114,174.41V167.2h1.59v7.21Z"/><path class="cls-1" d="M126.66,167.2h2.8a4.36,4.36,0,0,1,2,.43,2.94,2.94,0,0,1,1.3,1.24,3.88,3.88,0,0,1,.45,1.93,4,4,0,0,1-.45,1.94,2.92,2.92,0,0,1-1.29,1.24,4.54,4.54,0,0,1-2,.43h-2.8Zm2.68,5.92a2.32,2.32,0,0,0,0-4.63h-1.09v4.63Z"/><path class="cls-1" d="M149.42,174.41l-.68-1.6h-3.36l-.68,1.6h-1.61l3.32-7.21h1.27l3.32,7.21Zm-3.51-2.8h2.31l-1.16-2.7Z"/><path class="cls-1" d="M161.27,167.2h2.8a4.41,4.41,0,0,1,2,.43,3.05,3.05,0,0,1,1.3,1.24,3.88,3.88,0,0,1,.44,1.93,4,4,0,0,1-.44,1.94,3,3,0,0,1-1.29,1.24,4.58,4.58,0,0,1-2,.43h-2.8Zm2.69,5.92a2.32,2.32,0,0,0,0-4.63h-1.09v4.63Z"/></g></g></svg>