<svg xmlns="http://www.w3.org/2000/svg" width="179.999" height="46.229" viewBox="0 0 179.999 46.229"><defs><style>.a{fill:#f6f6f6;}</style></defs><g transform="translate(-2895.628 -326.369)"><g transform="translate(2947.834 362.762)"><path class="a" d="M3035.135,428.453a2.286,2.286,0,0,1-.561-1.673V423.4h.639v3.44a1.691,1.691,0,0,0,.4,1.223,1.873,1.873,0,0,0,2.34,0,1.7,1.7,0,0,0,.394-1.223V423.4h.647v3.385a2.279,2.279,0,0,1-.564,1.669,2.664,2.664,0,0,1-3.294,0Z" transform="translate(-3034.574 -423.332)"/><path class="a" d="M3073.895,423.4h.607v5.563h-.5l-3.354-4.474v4.474h-.607V423.4h.5l3.354,4.473Z" transform="translate(-3056.717 -423.332)"/><path class="a" d="M3105.723,428.958V423.4h.647v5.563Z" transform="translate(-3078.99 -423.332)"/><path class="a" d="M3134.232,423.4h.663l-2.43,5.563h-.56l-2.43-5.563h.678l2.036,4.75Z" transform="translate(-3093.817 -423.332)"/><path class="a" d="M3165.93,428.958V423.4h3.519v.537h-2.88v1.933h2.722v.537h-2.722v2.02h2.88v.537Z" transform="translate(-3116.575 -423.332)"/><path class="a" d="M3202.691,428.958h-.71l-.946-1.783a1.035,1.035,0,0,0-.406-.446,1.38,1.38,0,0,0-.636-.122h-1.041v2.351h-.639V423.4h2.288a2.1,2.1,0,0,1,1.385.4,1.463,1.463,0,0,1,.478,1.184,1.481,1.481,0,0,1-.367,1.045,1.716,1.716,0,0,1-1.045.5.939.939,0,0,1,.375.213,1.516,1.516,0,0,1,.3.4Zm-2.146-2.888a1.474,1.474,0,0,0,.967-.269,1,1,0,0,0,.32-.813.972.972,0,0,0-.316-.8,1.5,1.5,0,0,0-.971-.26h-1.593v2.138Z" transform="translate(-3136.791 -423.332)"/><path class="a" d="M3232.017,428.214l.252-.5a2.651,2.651,0,0,0,.84.5,3.026,3.026,0,0,0,1,.15,1.752,1.752,0,0,0,1.033-.26.85.85,0,0,0,.363-.734.607.607,0,0,0-.174-.449,1.216,1.216,0,0,0-.458-.276,6.917,6.917,0,0,0-.765-.213,7.414,7.414,0,0,1-1.061-.315,1.652,1.652,0,0,1-.671-.473,1.217,1.217,0,0,1-.257-.805,1.462,1.462,0,0,1,.249-.84,1.613,1.613,0,0,1,.71-.568,2.657,2.657,0,0,1,1.07-.2,3.149,3.149,0,0,1,1.077.181,2.336,2.336,0,0,1,.848.521l-.245.5a2.717,2.717,0,0,0-.8-.493,2.463,2.463,0,0,0-.879-.154,1.671,1.671,0,0,0-1.014.272.894.894,0,0,0-.367.762.706.706,0,0,0,.323.631,3.08,3.08,0,0,0,.979.363q.717.174,1.128.32a1.694,1.694,0,0,1,.682.438,1.1,1.1,0,0,1,.272.781,1.409,1.409,0,0,1-.248.829,1.589,1.589,0,0,1-.715.548,2.815,2.815,0,0,1-1.088.193A3,3,0,0,1,3232.017,428.214Z" transform="translate(-3157.831 -423.227)"/><path class="a" d="M3265.973,428.958V423.4h.647v5.563Z" transform="translate(-3179.029 -423.332)"/><path class="a" d="M3291.509,423.4h1.87a2.81,2.81,0,0,1,2.063.722,3.265,3.265,0,0,1,0,4.115,2.8,2.8,0,0,1-2.063.726h-1.87Zm1.831,5.01a2.23,2.23,0,0,0,0-4.458h-1.184v4.458Z" transform="translate(-3194.97 -423.332)"/><path class="a" d="M3330.2,428.958l-.616-1.428h-2.9l-.616,1.428h-.663l2.446-5.563h.561l2.446,5.563Zm-3.291-1.965h2.446l-1.224-2.848Z" transform="translate(-3216.129 -423.332)"/><path class="a" d="M3362.279,423.4h1.87a2.811,2.811,0,0,1,2.064.722,3.265,3.265,0,0,1,0,4.115,2.8,2.8,0,0,1-2.064.726h-1.87Zm1.831,5.01a2.23,2.23,0,0,0,0-4.458h-1.184v4.458Z" transform="translate(-3239.15 -423.332)"/></g><path class="a" d="M3042.461,357.162h-9.608V326.369h9.608Zm36.828-25.141v-5.651H3048.5v27.205a3.588,3.588,0,0,0,3.588,3.587h27.205V351.51H3059.8V343.6h17.458a.858.858,0,0,0,.858-.859v-4.792H3059.8V332.02Zm81.992,0v-5.651h-30.793v27.205a3.587,3.587,0,0,0,3.587,3.587h27.206V351.51h-19.49V343.6h17.458a.859.859,0,0,0,.859-.859v-4.792h-18.317V332.02Zm-64.382-5.651h-11.566l12.014,13.949a2.172,2.172,0,0,1,0,2.835L3085.334,357.1H3096.9l12.011-13.945a2.179,2.179,0,0,0,0-2.843Zm27.943,0-11.512,13.366a1.307,1.307,0,0,1-1.982,0l-4.792-5.564,6.72-7.8ZM3113.276,357.1l-6.72-7.8,4.792-5.564a1.307,1.307,0,0,1,1.982,0l11.512,13.366Z" transform="translate(-85.665 0)"/><path class="a" d="M2895.628,326.369v26.352a19.744,19.744,0,1,0,39.488.058v-26.41Zm19.83,16.055,4.933-5.728a.891.891,0,0,0,0-1.164l-4.933-5.727h4.749l4.931,5.725a.894.894,0,0,1,0,1.167l-4.931,5.726Zm11.473,0-2.759-3.2,1.968-2.284a.537.537,0,0,1,.814,0l4.726,5.488Zm.022-7.131a.537.537,0,0,1-.814,0l-1.968-2.284,2.759-3.2h4.749Z" transform="translate(0 0)"/></g></svg>