<svg xmlns="http://www.w3.org/2000/svg" viewBox="0 0 39.4 10"><defs><style>.cls-1{fill:#f3f3f3;}</style></defs><g id="Layer_2" data-name="Layer 2"><g id="Layer_1-2" data-name="Layer 1"><g id="Layer_2-2" data-name="Layer 2"><g id="Layer_1-2-2" data-name="Layer 1-2"><path class="cls-1" d="M13.26,6.67H11.18V0h2.08Zm8-5.45V0H14.57V5.9a.76.76,0,0,0,.77.77h5.9V5.45H17V3.73H20.8A.19.19,0,0,0,21,3.55v-1H17V1.22ZM39,1.22V0H32.33V5.9a.78.78,0,0,0,.78.77H39V5.45H34.78V3.73h3.79a.18.18,0,0,0,.18-.18h0v-1h-4V1.22ZM25.06,0H22.54l2.6,3a.48.48,0,0,1,0,.62l-2.6,3h2.51l2.61-3a.48.48,0,0,0,0-.62Zm6.05,0L28.63,2.9a.29.29,0,0,1-.4,0l0,0L27.15,1.69,28.6,0ZM28.6,6.66,27.15,5l1-1.21a.28.28,0,0,1,.39,0s0,0,0,0l2.5,2.9Z"/><path class="cls-1" d="M0,0V5.71a4.29,4.29,0,1,0,8.57,0V0ZM4.3,3.48,5.37,2.24a.2.2,0,0,0,0-.25L4.3.74h1L6.39,2a.18.18,0,0,1,0,.25L5.33,3.48Zm2.48,0-.6-.69.43-.5a.11.11,0,0,1,.16,0h0l1,1.19Zm0-1.55a.11.11,0,0,1-.16,0l0,0-.43-.49.61-.7h1Z"/><path class="cls-1" d="M11.41,9a.56.56,0,0,1-.13-.39V7.9h.3v.71a.36.36,0,0,0,.06.2.24.24,0,0,0,.34,0,.29.29,0,0,0,0-.2V7.9h.31v.7a.56.56,0,0,1-.13.39.58.58,0,0,1-.4.13A.57.57,0,0,1,11.41,9Z"/><path class="cls-1" d="M15,7.9h.29V9.11H15l-.55-.68v.68h-.3V7.9h.23l.55.68Z"/><path class="cls-1" d="M17.08,9.11V7.9h.31V9.11Z"/><path class="cls-1" d="M20.1,7.9h.32l-.55,1.21h-.25L19.08,7.9h.32l.35.82Z"/><path class="cls-1" d="M22.11,9.11V7.9H23v.25h-.55v.22h.52v.24h-.52v.25H23v.25Z"/><path class="cls-1" d="M25.82,9.11h-.35l-.21-.39a.11.11,0,0,0-.12-.06H25v.45h-.31V7.9h.58a.51.51,0,0,1,.33.1.39.39,0,0,1,.11.27.4.4,0,0,1-.08.23.42.42,0,0,1-.21.13.2.2,0,0,1,.16.13Zm-.4-.72a.12.12,0,0,0,0-.11.15.15,0,0,0,0-.11l-.15,0H25v.28h.23A.27.27,0,0,0,25.42,8.39Z"/><path class="cls-1" d="M27.72,9.09a1,1,0,0,1-.21-.1l.1-.22.18.08.21,0,.15,0a.08.08,0,0,0,.05-.08.07.07,0,0,0,0-.07A.6.6,0,0,0,28,8.64a1.14,1.14,0,0,1-.26-.09.3.3,0,0,1-.14-.11.47.47,0,0,1,0-.17.31.31,0,0,1,.07-.2.37.37,0,0,1,.17-.13A.58.58,0,0,1,28,7.88a1,1,0,0,1,.25,0,.54.54,0,0,1,.2.1l-.1.22A.61.61,0,0,0,28,8.13a.35.35,0,0,0-.14,0,.12.12,0,0,0-.05.09.08.08,0,0,0,0,.05.1.1,0,0,0,.07,0,.42.42,0,0,0,.15,0,1.14,1.14,0,0,1,.26.09.37.37,0,0,1,.13.12.29.29,0,0,1,0,.16.34.34,0,0,1-.13.28.66.66,0,0,1-.39.09Z"/><path class="cls-1" d="M30.3,9.11V7.9h.32V9.11Z"/><path class="cls-1" d="M32.46,7.9H33a.8.8,0,0,1,.34.07.52.52,0,0,1,.23.21.72.72,0,0,1,.08.32.73.73,0,0,1-.08.33.45.45,0,0,1-.23.2.77.77,0,0,1-.34.08h-.49Zm.45.95a.34.34,0,0,0,.26-.08.34.34,0,0,0,.09-.27.32.32,0,0,0-.09-.26.35.35,0,0,0-.26-.08h-.15v.69Z"/><path class="cls-1" d="M36.27,9.11l-.11-.25h-.54l-.1.25H35.2l.56-1.21H36l.57,1.21Zm-.54-.49h.33l-.16-.38Z"/><path class="cls-1" d="M38.26,7.9h.49A.84.84,0,0,1,39.1,8a.56.56,0,0,1,.22.21.61.61,0,0,1,.08.32.62.62,0,0,1-.08.33.47.47,0,0,1-.22.2.85.85,0,0,1-.35.08h-.49Zm.47.95A.34.34,0,0,0,39,8.77a.34.34,0,0,0,.09-.27A.32.32,0,0,0,39,8.24a.34.34,0,0,0-.26-.08h-.15v.69Z"/></g></g></g></g></svg>