<?xml version="1.0" standalone="no"?>
<!DOCTYPE svg PUBLIC "-//W3C//DTD SVG 20010904//EN"
 "http://www.w3.org/TR/2001/REC-SVG-20010904/DTD/svg10.dtd">
<svg version="1.0" xmlns="http://www.w3.org/2000/svg"
 width="211.000000pt" height="211.000000pt" viewBox="0 0 211.000000 211.000000"
 preserveAspectRatio="xMidYMid meet">
<metadata>
Created by potrace 1.14, written by Peter Selinger 2001-2017
</metadata>
<g transform="translate(0.000000,211.000000) scale(0.100000,-0.100000)"
fill="#000000" stroke="none">
<path d="M171 1418 c0 -456 4 -618 14 -663 35 -163 106 -296 220 -410 93 -92
111 -107 208 -158 75 -39 164 -70 233 -82 131 -21 290 -9 412 31 68 23 193 91
244 133 147 122 240 265 289 446 22 78 22 97 24 693 l3 612 -824 0 -824 0 1
-602z m1046 428 c13 -16 27 -32 31 -35 22 -16 163 -194 160 -203 -2 -6 -51
-66 -108 -134 l-105 -123 -98 -1 -99 0 54 61 c131 152 158 185 158 202 0 10
-41 67 -92 125 -50 59 -97 114 -104 122 -12 14 -2 15 84 15 96 0 97 0 119 -29z
m441 22 c-6 -15 -191 -228 -198 -228 -5 0 -29 23 -54 51 l-46 51 47 55 c26 30
54 60 64 66 18 13 191 18 187 5z m-117 -368 c35 -41 76 -88 91 -105 15 -16 28
-33 28 -37 0 -5 -41 -8 -91 -8 -101 0 -93 -5 -179 101 l-29 35 50 54 c29 32
53 50 58 44 5 -5 37 -43 72 -84z"/>
</g>
</svg>
