<svg xmlns="http://www.w3.org/2000/svg" width="24" height="24" viewBox="0 0 24 24">
  <g id="Group_1160" data-name="Group 1160" transform="translate(-358 -312)">
    <circle id="Ellipse_476" data-name="Ellipse 476" cx="12" cy="12" r="12" transform="translate(358 312)" fill="#fff"/>
    <path id="Spotify-Icon-Black-Logo.wine" d="M13.231,7.37c-2.68-1.591-7.1-1.738-9.658-.961a.778.778,0,0,1-.451-1.488c2.937-.891,7.818-.719,10.9,1.112a.778.778,0,0,1-.794,1.337m-.088,2.357a.648.648,0,0,1-.892.213,10.912,10.912,0,0,0-8.284-.969.648.648,0,1,1-.377-1.24,12.128,12.128,0,0,1,9.339,1.1.648.648,0,0,1,.213.891m-1.017,2.264a.518.518,0,0,1-.712.172,9.564,9.564,0,0,0-7.3-.8.518.518,0,1,1-.231-1.01,10.553,10.553,0,0,1,8.074.927.518.518,0,0,1,.172.713M8.313,0a8.313,8.313,0,1,0,8.314,8.313A8.313,8.313,0,0,0,8.313,0" transform="translate(361.773 315.773)" fill="#0021c3"/>
  </g>
</svg>
