<svg xmlns="http://www.w3.org/2000/svg" width="27.812" height="27.705" viewBox="0 0 27.812 27.705"><defs><style>.a{fill:#00ffe8;}</style></defs><g transform="translate(-9.594 -9.043)"><g transform="translate(0 0)"><path class="a" d="M261.153,69.994l-4.311-2.155a1.357,1.357,0,0,0-1.567.254l-1.623,1.623c-.678.058-2.578-.063-5.1-2.583s-2.641-4.419-2.583-5.1l1.623-1.623a1.358,1.358,0,0,0,.254-1.567l-2.155-4.311a4.073,4.073,0,0,0-6.523-1.059l-2.381,2.381a4.071,4.071,0,0,0-1.2,2.974c.044,2.607,1.038,7.9,7.2,14.062,5.592,5.592,11.1,6.835,13.882,7.078a4.092,4.092,0,0,0,3.259-1.178l2.276-2.276a4.073,4.073,0,0,0-1.059-6.523Zm-.862,4.6-2.276,2.276a1.364,1.364,0,0,1-1.1.393c-2.416-.211-7.214-1.309-12.2-6.292-5.692-5.692-6.375-10.419-6.405-12.187a1.378,1.378,0,0,1,.4-1.008l2.381-2.381a1.357,1.357,0,0,1,2.174.353l1.718,3.435-1.228,1.228a1.358,1.358,0,0,0-.328.531c-.125.376-1.1,3.8,3.208,8.109s7.733,3.334,8.11,3.208a1.357,1.357,0,0,0,.531-.328l1.228-1.228,3.435,1.718a1.357,1.357,0,0,1,.353,2.174Z" transform="translate(-226 -43.239)"/></g></g></svg>