<svg xmlns="http://www.w3.org/2000/svg" width="158.234" height="159.331" viewBox="0 0 158.234 159.331"><defs><style>.a{fill:#ff0b53;}.b{fill:#00f0e9;}.c{fill:#fff;}</style></defs><path class="a" d="M145.961,53.028a33.317,33.317,0,0,1-11.629-5.006,29.89,29.89,0,0,1-8.2-8.359,27.062,27.062,0,0,1-4.058-10.5,26.285,26.285,0,0,1,.745-11.473L99.872,12.745,74.592,96.5a19.371,19.371,0,0,1-3.675,6.8,20.956,20.956,0,0,1-5.911,4.883,21.532,21.532,0,0,1-7.333,2.493,20.744,20.744,0,0,1-7.923-.356,19.191,19.191,0,0,1-6.99-3.259,17.856,17.856,0,0,1-4.805-5.406,17.353,17.353,0,0,1-2.21-6.787,17.928,17.928,0,0,1,.779-7.42,19.433,19.433,0,0,1,3.729-6.669A20.982,20.982,0,0,1,46.1,76.017a21.534,21.534,0,0,1,7.2-2.436,20.767,20.767,0,0,1,7.786.306c.489.114.99.249,1.49.4s1,.326,1.492.513.97.39,1.428.6.9.441,1.3.675l6.852-22.224q-.7-.261-1.405-.5T70.813,52.9q-.724-.217-1.462-.411t-1.489-.365a46.282,46.282,0,0,0-17.16-.617,47.965,47.965,0,0,0-15.855,5.352A46.778,46.778,0,0,0,21.894,67.29,43.382,43.382,0,0,0,13.52,81.972,40.029,40.029,0,0,0,11.6,98.431a38.678,38.678,0,0,0,4.738,15.194,39.726,39.726,0,0,0,10.619,12.218A42.679,42.679,0,0,0,42.6,133.284a46.177,46.177,0,0,0,17.84.865,47.952,47.952,0,0,0,16.52-5.632,46.638,46.638,0,0,0,13.246-11.056,43.078,43.078,0,0,0,8.109-15.324l13.211-45.525a47.3,47.3,0,0,0,5.575,5.9,49.394,49.394,0,0,0,6.691,5.01,51.722,51.722,0,0,0,7.714,3.958,54.587,54.587,0,0,0,8.64,2.738Z" transform="translate(4.408 7.094)"/><path class="b" d="M145.37,52.489a33.072,33.072,0,0,1-11.557-4.952,29.531,29.531,0,0,1-8.135-8.281,26.693,26.693,0,0,1-4.011-10.409,26.009,26.009,0,0,1,.769-11.379L99.615,12.584,74.265,95.662a19.267,19.267,0,0,1-3.672,6.744,20.934,20.934,0,0,1-5.891,4.847,21.535,21.535,0,0,1-7.3,2.479,20.7,20.7,0,0,1-7.881-.345,19.048,19.048,0,0,1-6.946-3.223,17.637,17.637,0,0,1-4.768-5.355,17.116,17.116,0,0,1-2.183-6.727,17.738,17.738,0,0,1,.792-7.358,19.334,19.334,0,0,1,3.725-6.617,20.963,20.963,0,0,1,5.833-4.722,21.537,21.537,0,0,1,7.167-2.423,20.719,20.719,0,0,1,7.746.3c.487.113.984.246,1.482.4s1,.322,1.483.507.964.385,1.42.6.89.436,1.292.668L73.43,53.384q-.691-.258-1.4-.494t-1.425-.45q-.72-.214-1.453-.406t-1.48-.36A46.179,46.179,0,0,0,50.6,51.079,47.972,47.972,0,0,0,34.816,56.4,46.733,46.733,0,0,0,21.9,66.756a43.161,43.161,0,0,0-8.364,14.568,39.607,39.607,0,0,0-1.946,16.322,38.146,38.146,0,0,0,4.68,15.06,39.233,39.233,0,0,0,10.536,12.1,42.356,42.356,0,0,0,15.543,7.36,46.068,46.068,0,0,0,17.745.839,47.957,47.957,0,0,0,16.447-5.6,46.589,46.589,0,0,0,13.2-10.974,42.84,42.84,0,0,0,8.1-15.2L111.1,56.077a46.714,46.714,0,0,0,5.531,5.84,48.879,48.879,0,0,0,6.644,4.961,51.292,51.292,0,0,0,7.665,3.917,54.259,54.259,0,0,0,8.588,2.706Z"/><path class="c" d="M137.3,50.872a32.324,32.324,0,0,1-5.047-2.815,30.746,30.746,0,0,1-4.3-3.544,29.275,29.275,0,0,1-3.483-4.15,27.9,27.9,0,0,1-2.594-4.634,28.458,28.458,0,0,1-3.183-4.277,27.123,27.123,0,0,1-2.275-4.72,26.131,26.131,0,0,1-1.3-5.044,25.75,25.75,0,0,1-.262-5.253L97.728,12.745,72.448,96.5a19.372,19.372,0,0,1-3.675,6.8,20.957,20.957,0,0,1-5.911,4.883,21.532,21.532,0,0,1-7.333,2.493,20.744,20.744,0,0,1-7.923-.356,19.545,19.545,0,0,1-4.846-1.876,18.344,18.344,0,0,1-3.953-2.93,17.74,17.74,0,0,1-2.937-3.761,17.4,17.4,0,0,1-1.805-4.37A17.5,17.5,0,0,1,31.2,93.618a17.124,17.124,0,0,1-2.214-9.086,18.022,18.022,0,0,1,.876-4.9,19.335,19.335,0,0,1,3.725-6.617,20.963,20.963,0,0,1,5.833-4.722,21.536,21.536,0,0,1,7.167-2.423,20.72,20.72,0,0,1,7.746.3c.487.113.984.246,1.482.4s1,.322,1.483.507.964.385,1.42.6.89.436,1.292.668L65.1,52a46.337,46.337,0,0,0-16.991-.412,47.984,47.984,0,0,0-15.668,5.426A46.731,46.731,0,0,0,19.653,67.4a43.364,43.364,0,0,0-8.276,14.568,41.214,41.214,0,0,0-1.684,7.094A39.448,39.448,0,0,0,9.307,96.1,38.659,38.659,0,0,0,12.2,109.476a39.229,39.229,0,0,0,4.526,5.2,40.16,40.16,0,0,0,5.491,4.429A41.608,41.608,0,0,0,28.6,122.62a43.883,43.883,0,0,0,7.205,2.453,46.068,46.068,0,0,0,17.745.839,47.959,47.959,0,0,0,16.447-5.6,46.59,46.59,0,0,0,13.2-10.974,42.84,42.84,0,0,0,8.1-15.2l13.252-45.153a46.718,46.718,0,0,0,5.531,5.84,48.875,48.875,0,0,0,6.644,4.961,51.286,51.286,0,0,0,7.665,3.917,54.268,54.268,0,0,0,8.588,2.706Z" transform="translate(6.552 7.094)"/></svg>