<svg xmlns="http://www.w3.org/2000/svg" width="24" height="24" viewBox="0 0 24 24">
  <g id="Group_1161" data-name="Group 1161" transform="translate(-391 -312)">
    <circle id="Ellipse_477" data-name="Ellipse 477" cx="12" cy="12" r="12" transform="translate(391 312)" fill="#fff"/>
    <path id="Cib-tiktok__CoreUI_Icons_v1.0.0_" data-name="Cib-tiktok_(CoreUI_Icons_v1.0.0)" d="M8.4.012C9.154,0,9.9.007,10.65,0a3.581,3.581,0,0,0,1.006,2.4,4.06,4.06,0,0,0,2.437,1.028V5.742a6.107,6.107,0,0,1-2.415-.557,6.987,6.987,0,0,1-.932-.535c0,1.68.007,3.358-.011,5.031a4.377,4.377,0,0,1-.777,2.266,4.28,4.28,0,0,1-3.4,1.844,4.183,4.183,0,0,1-2.344-.59,4.332,4.332,0,0,1-2.1-3.284C2.1,9.63,2.1,9.343,2.111,9.062A4.332,4.332,0,0,1,7.131,5.219c.012.852-.022,1.7-.022,2.554a1.978,1.978,0,0,0-2.52,1.219,2.285,2.285,0,0,0-.078.925,1.962,1.962,0,0,0,3.6.726,1.356,1.356,0,0,0,.236-.611C8.407,9,8.384,7.98,8.391,6.951c0-2.318-.007-4.629.011-6.939Z" transform="translate(394.488 317.531)" fill="#0022c0"/>
  </g>
</svg>
