<svg xmlns="http://www.w3.org/2000/svg" width="24" height="24" viewBox="0 0 24 24">
  <path id="Subtraction_3" data-name="Subtraction 3" d="M12,24A12,12,0,0,1,3.515,3.515,12,12,0,1,1,20.485,20.485,11.922,11.922,0,0,1,12,24ZM6.054,15.7h0a7,7,0,0,0,3.779,1.107,6.759,6.759,0,0,0,5.026-2.087A7.265,7.265,0,0,0,16.84,9.476,5,5,0,0,0,18.07,8.2a4.92,4.92,0,0,1-1.416.388,2.463,2.463,0,0,0,1.084-1.364,4.945,4.945,0,0,1-1.565.6,2.467,2.467,0,0,0-4.2,2.248A7.022,7.022,0,0,1,6.89,7.5a2.47,2.47,0,0,0,.762,3.291,2.479,2.479,0,0,1-1.116-.309,2.476,2.476,0,0,0,1.977,2.449,2.467,2.467,0,0,1-1.113.041A2.464,2.464,0,0,0,9.7,14.68a4.982,4.982,0,0,1-3.06,1.056A5.041,5.041,0,0,1,6.054,15.7Z" fill="#fff"/>
</svg>
