<svg xmlns="http://www.w3.org/2000/svg" xmlns:xlink="http://www.w3.org/1999/xlink" width="90.136" height="70.752" viewBox="0 0 90.136 70.752"><defs><style>.a{opacity:0.148;fill:url(#a);}</style><linearGradient id="a" x1="0.5" x2="0.5" y2="1" gradientUnits="objectBoundingBox"><stop offset="0" stop-color="#0017ff"/><stop offset="1" stop-color="#3f2cf5" stop-opacity="0"/></linearGradient></defs><path class="a" d="M1294.585,935.78l15.3-17.846.011-.006h25.934c.011,0,.018.015.011.022l-25.661,29.938a3.444,3.444,0,0,1-5.227,0L1294.585,935.8Zm-48.865,52.9,27.484-32.065a5.089,5.089,0,0,0,0-6.622l-27.484-32.065h26.626l27.521,32.108a5.022,5.022,0,0,1,0,6.537l-27.521,32.107Zm64.164,0-15.307-17.859,10.382-12.113a3.429,3.429,0,0,1,5.207,0l25.689,29.972Z" transform="translate(-1245.721 -917.929)"/></svg>