<svg xmlns="http://www.w3.org/2000/svg" xmlns:xlink="http://www.w3.org/1999/xlink" width="702.645" height="551.541" viewBox="0 0 702.645 551.541"><defs><style>.a{fill:url(#a);}</style><linearGradient id="a" x1="0.5" x2="0.5" y2="0.964" gradientUnits="objectBoundingBox"><stop offset="0" stop-color="#00ffe8"/><stop offset="1" stop-color="#001e42"/></linearGradient></defs><path class="a" d="M1626.643,1057.085l119.235-139.113.092-.043h202.163c.086,0,.145.115.086.173l-200.034,233.379a26.848,26.848,0,0,1-40.751,0l-80.79-94.262Zm-380.922,412.385,214.247-249.962a39.664,39.664,0,0,0,0-51.617L1245.721,917.929h207.564l214.534,250.3a39.147,39.147,0,0,1,0,50.961l-214.534,250.284Zm500.187,0-119.321-139.215,80.933-94.425a26.737,26.737,0,0,1,40.593,0l200.254,233.64Z" transform="translate(-1245.721 -917.929)"/></svg>