<svg xmlns="http://www.w3.org/2000/svg" width="99.37" height="78" viewBox="0 0 99.37 78"><defs><style>.a{fill:#001e42;}</style></defs><path class="a" d="M1299.591,937.608l16.863-19.674.013-.006h28.59c.012,0,.02.016.012.024l-28.29,33.005a3.8,3.8,0,0,1-5.763,0l-11.426-13.331Zm-53.871,58.32,30.3-35.35a5.609,5.609,0,0,0,0-7.3l-30.3-35.35h29.354l30.34,35.4a5.536,5.536,0,0,1,0,7.207l-30.34,35.4Zm70.737,0-16.875-19.688,11.446-13.354a3.781,3.781,0,0,1,5.741,0l28.32,33.042Z" transform="translate(-1245.721 -917.929)"/></svg>