<svg xmlns="http://www.w3.org/2000/svg" xmlns:xlink="http://www.w3.org/1999/xlink" width="331.902" height="260.526" viewBox="0 0 331.902 260.526"><defs><style>.a{opacity:0.28;fill:url(#a);}</style><linearGradient id="a" x1="0.5" x2="0.5" y2="0.964" gradientUnits="objectBoundingBox"><stop offset="0" stop-color="#e7f7f7" stop-opacity="0"/><stop offset="0.518" stop-color="#e7f7f7"/><stop offset="1" stop-color="#001e42"/></linearGradient></defs><path class="a" d="M1425.653,983.661l56.322-65.712.043-.02h95.494c.041,0,.068.054.041.082l-94.488,110.239a12.682,12.682,0,0,1-19.249,0l-38.162-44.526Zm-179.933,194.794,101.2-118.072a18.736,18.736,0,0,0,0-24.382l-101.2-118.072h98.045l101.338,118.23a18.492,18.492,0,0,1,0,24.072l-101.338,118.224Zm236.268,0-56.363-65.76,38.229-44.6a12.63,12.63,0,0,1,19.175,0l94.592,110.362Z" transform="translate(-1245.721 -917.929)"/></svg>